<?xml version="1.0" standalone="no"?>
<!DOCTYPE svg PUBLIC "-//W3C//DTD SVG 20010904//EN"
 "http://www.w3.org/TR/2001/REC-SVG-20010904/DTD/svg10.dtd">
<svg version="1.0" xmlns="http://www.w3.org/2000/svg"
 width="640.000000pt" height="640.000000pt" viewBox="0 0 640.000000 640.000000"
 preserveAspectRatio="xMidYMid meet">
<metadata>
Created by potrace 1.11, written by Peter Selinger 2001-2013
</metadata>
<g transform="translate(0.000000,640.000000) scale(0.100000,-0.100000)"
fill="#000000" stroke="none">
<path d="M4695 6176 c-180 -95 -440 -350 -730 -718 -55 -70 -101 -124 -102
-120 -1 4 -4 59 -6 122 -3 63 -7 124 -10 135 -3 11 -11 43 -18 70 -50 204
-211 392 -404 471 l-40 16 36 -39 c146 -153 154 -462 24 -913 -20 -68 -37
-126 -39 -127 -2 -2 -9 18 -16 44 -54 199 -209 362 -399 418 -60 18 -178 32
-216 25 -27 -5 -26 -6 22 -18 55 -14 118 -55 166 -105 65 -70 118 -229 130
-395 l5 -62 -71 73 c-40 40 -100 90 -134 111 -69 41 -196 91 -258 100 -22 4
-53 9 -70 11 -57 10 -155 12 -155 4 0 -5 9 -9 20 -9 32 0 132 -41 180 -74 108
-73 188 -188 239 -341 28 -84 65 -264 57 -272 -2 -3 -38 7 -79 21 -455 153
-994 57 -1482 -261 -223 -146 -437 -335 -610 -538 -33 -38 -63 -72 -66 -75 -3
-3 -41 -52 -85 -110 -212 -281 -397 -641 -488 -950 -68 -229 -95 -421 -91
-645 4 -295 45 -440 220 -800 67 -136 162 -272 260 -370 131 -131 319 -253
495 -321 51 -20 85 -40 108 -66 18 -20 49 -42 69 -49 51 -16 131 -14 178 5 26
11 55 15 85 12 25 -3 77 -7 117 -8 39 -2 69 -6 66 -10 -2 -5 1 -8 6 -8 6 0 11
4 11 8 0 5 7 9 15 9 10 0 12 -4 5 -12 -6 -8 -6 -12 3 -12 6 0 19 -4 28 -7 11
-5 19 -1 23 9 5 13 1 15 -14 10 -11 -4 -20 -2 -20 2 0 5 16 9 36 10 27 0 34
-3 30 -14 -4 -9 -1 -13 6 -10 7 2 13 11 12 19 -1 9 7 14 20 13 13 -1 21 -9 21
-20 0 -10 5 -20 12 -22 8 -3 11 3 8 16 -2 11 1 24 7 27 16 10 68 13 62 3 -3
-5 -1 -9 5 -9 5 0 12 8 14 18 4 16 5 16 6 0 0 -10 7 -16 14 -14 6 1 9 1 5 -1
-13 -8 -9 -20 7 -20 24 0 26 27 2 37 -20 9 -20 10 -2 9 11 -1 22 0 25 1 21 7
60 7 60 -1 0 -6 -5 -7 -11 -3 -7 4 -9 -2 -7 -17 2 -19 10 -24 35 -25 25 -1 31
3 30 17 -1 11 -7 19 -15 19 -7 0 -10 -4 -7 -10 3 -5 1 -10 -5 -10 -7 0 -10 6
-7 13 2 7 21 12 43 12 22 1 45 4 51 8 7 4 14 -1 18 -13 4 -11 11 -18 16 -14 6
4 6 11 -1 19 -9 10 -6 16 9 25 12 6 21 8 21 5 0 -3 16 6 36 21 23 18 38 24 42
17 5 -7 11 -7 19 2 10 11 9 14 -5 17 -14 3 -12 5 6 10 12 3 20 2 16 -3 -3 -5
0 -9 6 -9 6 0 13 7 16 15 5 13 9 13 22 3 13 -11 15 -10 10 4 -7 17 7 19 31 4
11 -7 13 -5 8 7 -4 10 0 20 11 26 15 8 17 5 16 -27 -1 -21 -3 -41 -3 -46 -1
-4 -8 -5 -17 -2 -9 4 -14 1 -12 -6 2 -6 13 -13 25 -14 15 -3 20 2 19 14 0 10
6 17 15 16 11 -1 16 7 16 26 0 20 -4 27 -15 23 -10 -4 -13 0 -10 13 2 10 7 17
12 16 5 -2 13 2 18 10 7 9 8 7 4 -7 -5 -16 -1 -21 15 -22 17 -2 18 1 8 13 -10
12 -9 13 7 8 18 -5 18 -5 0 10 -11 9 -15 16 -9 16 7 0 15 -4 18 -10 3 -5 11
-10 17 -10 6 0 5 7 -3 17 -11 15 -11 16 1 5 21 -18 35 -15 19 5 -8 9 -9 14 -3
10 7 -4 15 0 18 9 3 8 10 12 16 9 5 -3 10 -1 10 5 0 6 4 9 9 5 5 -3 13 -1 16
5 5 8 11 8 20 0 8 -7 15 -7 19 -1 3 5 0 12 -6 14 -9 4 -7 6 3 6 9 1 22 8 29
16 7 8 16 12 21 9 5 -3 9 -1 9 5 0 6 7 7 17 4 12 -5 14 -3 8 8 -4 8 -5 11 -1
8 4 -4 19 4 33 17 25 23 27 24 46 7 18 -17 19 -17 16 2 -3 16 1 20 24 18 15
-1 25 2 22 7 -3 5 5 7 17 4 40 -10 80 -4 75 10 -5 12 -10 12 -42 1 -11 -4 -4
3 15 16 19 13 40 22 45 20 45 -13 53 -9 35 19 -6 10 -10 11 -10 3 0 -7 -5 -13
-11 -13 -6 0 0 13 13 29 13 16 29 26 37 23 9 -3 12 -1 7 6 -5 8 -1 10 11 5 16
-6 17 -5 3 13 -8 10 19 -12 61 -51 41 -38 73 -73 71 -77 -2 -5 3 -8 11 -8 8 0
18 -7 21 -16 3 -8 10 -13 15 -10 5 3 19 -7 32 -23 13 -16 27 -27 31 -25 16 10
8 -6 -13 -25 l-21 -20 31 1 c24 1 28 4 20 14 -7 8 -7 14 1 19 10 6 14 -1 11
-18 -1 -4 7 -7 16 -5 10 2 18 -2 18 -9 0 -17 15 -29 15 -12 0 8 3 10 8 4 4 -6
20 -16 35 -24 15 -8 25 -20 23 -28 -3 -7 -1 -15 5 -19 6 -3 8 -12 5 -20 -3 -8
-2 -14 3 -14 15 0 20 13 11 31 -12 21 0 32 20 18 10 -6 11 -9 3 -9 -7 0 -13
-4 -13 -9 0 -4 11 -7 25 -6 13 2 23 -1 22 -7 -1 -6 4 -13 12 -16 9 -3 11 0 6
8 -5 9 -4 11 3 6 8 -5 8 -15 2 -32 -13 -33 -13 -32 8 -30 10 0 16 -6 16 -17
-2 -19 4 -21 26 -7 13 9 13 10 0 10 -10 1 -7 5 8 13 12 7 20 16 16 19 -9 9 39
-3 52 -13 6 -5 13 -6 16 -4 3 3 4 -10 1 -30 -2 -21 1 -35 7 -35 6 0 9 4 5 9
-3 6 3 14 12 20 10 6 12 11 6 11 -7 0 -13 5 -13 11 0 8 4 9 13 0 8 -6 17 -8
20 -4 4 3 7 2 7 -4 0 -5 6 -10 13 -11 48 -4 71 -23 62 -53 -4 -12 0 -16 19
-14 14 2 27 -3 30 -11 3 -7 12 -11 20 -8 8 3 12 12 9 21 -5 12 -8 12 -15 1 -7
-9 -8 -8 -4 6 5 14 2 17 -10 12 -21 -8 -34 1 -27 20 4 11 9 12 19 3 8 -6 20
-9 28 -6 11 4 13 1 9 -10 -5 -12 -3 -14 8 -7 19 12 39 14 39 4 0 -4 10 -6 23
-4 l22 5 -22 -10 c-23 -10 -32 -31 -13 -31 6 0 10 4 10 9 0 6 9 8 21 6 16 -3
19 0 15 13 -5 14 -3 13 9 -2 8 -11 15 -15 15 -9 0 6 15 10 34 10 29 -1 33 -4
30 -23 -2 -13 0 -26 6 -29 5 -3 10 0 10 9 0 8 6 17 13 19 10 4 10 6 0 6 -18 1
-16 18 2 18 8 0 12 -4 9 -9 -7 -11 3 -10 25 1 10 6 23 6 32 0 12 -7 12 -9 -1
-10 -8 -1 -22 0 -29 1 -13 1 -13 -1 -2 -14 11 -12 17 -14 27 -5 11 9 18 8 29
-1 9 -8 15 -9 15 -2 0 6 -4 14 -10 17 -5 3 -10 12 -10 18 0 7 4 6 10 -3 6 -9
10 -10 10 -3 0 6 9 11 19 10 11 0 19 -5 18 -10 -1 -5 4 -12 11 -14 8 -3 10 2
6 14 -3 10 2 6 10 -8 19 -33 42 -43 50 -23 9 24 7 27 -8 15 -10 -9 -16 -8 -26
4 -16 19 -11 24 31 30 55 8 63 10 79 20 13 7 13 6 2 -7 -10 -13 -10 -17 3 -22
9 -3 13 -2 10 4 -3 6 -1 10 5 10 6 0 8 5 4 12 -4 6 -3 8 4 5 14 -10 2 -49 -14
-43 -7 3 -18 -1 -24 -9 -11 -13 -1 -15 52 -6 4 0 5 7 2 15 -3 8 -1 17 5 20 6
4 8 13 5 21 -4 9 1 13 15 12 12 -1 21 -5 21 -10 0 -4 5 -5 10 -2 6 4 8 10 6
14 -3 4 0 8 7 8 7 0 40 18 73 41 34 23 67 42 73 42 7 0 9 5 5 13 -4 6 -4 9 0
5 5 -4 18 2 29 13 14 12 28 17 41 13 18 -6 19 -5 7 10 -7 9 -11 17 -7 17 3 1
10 2 15 3 16 2 25 16 10 16 -9 1 -7 7 8 19 12 10 19 22 15 26 -4 5 -2 5 5 1 7
-4 9 -14 6 -24 -6 -15 -5 -15 10 -4 9 8 21 11 27 7 15 -9 12 9 -6 31 -15 19
-16 19 -9 -1 4 -14 3 -17 -5 -9 -6 6 -8 18 -4 28 6 15 7 15 20 -1 16 -22 18
-10 3 19 -9 16 -8 19 2 13 9 -6 11 -3 6 8 -4 11 2 22 16 32 12 8 18 15 14 15
-5 0 0 14 10 30 9 17 21 30 26 30 4 0 5 6 1 13 -4 6 -4 9 1 5 4 -4 14 -3 22 4
7 6 16 8 20 5 3 -4 12 -2 20 5 11 9 12 7 7 -8 -5 -17 -4 -16 13 2 10 12 27 20
37 18 11 -1 25 0 30 4 13 8 18 9 47 11 11 0 18 5 15 9 -2 4 -1 14 5 22 6 10 9
11 9 3 0 -7 4 -13 10 -13 5 0 7 6 4 14 -3 8 -2 16 3 19 5 3 8 -11 7 -31 -3
-56 -4 -58 -13 -42 -6 8 -7 19 -4 25 4 7 2 7 -5 0 -16 -15 -4 -51 18 -52 12
-1 17 3 14 12 -3 7 -1 16 5 19 6 4 9 12 7 19 -1 7 -1 9 1 5 8 -14 19 -8 20 11
1 14 -3 18 -13 14 -8 -3 -14 0 -14 7 0 6 5 8 10 5 6 -3 10 -2 10 4 0 5 -4 11
-9 13 -4 2 8 13 27 26 20 13 30 17 24 9 -7 -7 -9 -17 -5 -20 9 -10 25 -9 19 1
-2 4 -1 14 4 21 10 18 33 3 26 -16 -4 -9 -1 -13 6 -10 7 2 11 11 9 18 -2 8 -4
20 -4 27 0 8 -8 10 -21 6 -25 -8 -20 -1 13 16 13 6 21 8 17 2 -3 -5 1 -13 10
-16 25 -9 25 -8 9 17 -14 22 -14 25 3 40 10 10 21 15 24 12 3 -3 11 2 19 12
12 15 12 16 -4 10 -15 -5 -14 -2 4 23 12 16 26 27 32 23 5 -3 7 3 3 14 -4 12
4 29 24 51 16 18 30 35 30 37 0 3 0 8 0 13 0 4 7 16 16 27 12 17 16 18 24 5 5
-8 12 -11 16 -7 4 3 1 15 -7 24 -13 17 -13 17 5 3 18 -14 19 -13 14 2 -5 12
-1 16 18 13 13 -1 29 4 35 11 6 7 32 16 57 20 26 4 56 11 67 17 63 31 192 127
238 176 58 63 345 512 388 606 141 312 18 722 -317 1059 -249 251 -565 422
-919 498 -129 28 -411 34 -508 11 -116 -27 -116 -27 -123 -7 -4 11 -26 48 -50
84 -84 127 -208 212 -385 264 l-82 23 129 51 c265 104 882 291 967 292 68 2
-131 62 -253 77 -36 4 -118 8 -182 8 -64 0 -114 3 -110 6 26 23 332 117 467
143 131 25 297 44 361 40 13 0 24 2 24 5 -1 11 -124 99 -175 124 -107 53 -209
73 -370 70 -97 -1 -287 -33 -327 -54 -36 -19 -28 -3 23 52 28 30 92 99 143
153 50 54 96 104 101 110 79 85 418 477 475 550 14 17 12 18 -30 12 -185 -25
-434 -149 -720 -360 -105 -77 -276 -212 -329 -260 l-35 -31 19 30 c254 404
592 954 624 1013 6 12 10 22 7 22 -2 0 -34 -15 -71 -34z m-675 -2313 c30 -8
84 -30 120 -50 65 -35 160 -108 160 -123 0 -4 -17 -19 -37 -33 -58 -38 -128
-109 -169 -171 -20 -31 -40 -56 -43 -56 -3 0 -17 30 -30 68 -35 97 -82 195
-140 291 -28 46 -51 86 -51 88 0 9 139 -1 190 -14z m1523 -1287 c-10 -13 -20
-22 -22 -20 -4 4 29 44 36 44 2 0 -4 -11 -14 -24z m-1943 -2026 c-14 -9 -40
-3 -40 9 0 16 14 20 33 10 15 -9 17 -13 7 -19z"/>
<path d="M5585 1390 c-3 -5 -11 -7 -19 -4 -7 3 -18 -7 -24 -21 -9 -20 -17 -25
-31 -20 -14 4 -23 0 -30 -13 -6 -11 -8 -22 -4 -25 3 -4 -2 -9 -11 -13 -9 -3
-16 -11 -16 -16 0 -6 -8 -17 -17 -24 -17 -13 -17 -15 1 -29 24 -18 27 -15 32
26 2 18 8 37 14 44 5 6 7 15 3 19 -4 4 1 4 12 0 18 -7 19 -6 5 12 -14 18 -14
18 4 4 20 -15 18 -16 53 37 9 12 11 13 7 2 -3 -9 3 -22 12 -30 15 -12 16 -12
11 6 -4 11 -2 27 3 35 9 13 11 13 19 0 5 -8 7 -18 5 -22 -3 -4 -1 -8 5 -8 18
0 21 18 5 34 -18 18 -30 20 -39 6z m-135 -150 c0 -5 -5 -10 -11 -10 -5 0 -7 5
-4 10 3 6 8 10 11 10 2 0 4 -4 4 -10z"/>
<path d="M5643 1373 c9 -14 -19 -37 -33 -28 -6 3 -8 11 -5 16 4 5 1 9 -4 9
-14 0 -14 -13 1 -28 9 -9 9 -12 -1 -12 -7 0 -11 -8 -9 -17 2 -11 13 -18 28
-18 14 -1 31 -4 38 -8 10 -7 10 -3 0 17 -6 14 -15 26 -20 26 -5 0 -6 -4 -3
-10 3 -5 1 -10 -4 -10 -18 0 -12 19 8 30 21 10 51 4 51 -11 0 -5 -3 -8 -7 -8
-24 4 -25 -3 -3 -14 17 -9 27 -10 32 -3 4 6 10 7 15 3 4 -5 3 -11 -2 -15 -15
-11 -17 -33 -4 -48 15 -18 36 -19 22 -1 -6 6 -10 21 -10 31 0 17 2 17 19 -4
20 -25 23 -40 7 -40 -5 0 -8 -4 -4 -10 9 -15 34 0 28 18 -4 14 -3 15 6 2 5 -8
14 -11 18 -6 4 5 2 11 -5 13 -8 3 -28 21 -45 40 -31 35 -126 106 -114 86z"/>
<path d="M5550 1341 c0 -6 -16 -21 -36 -33 -20 -12 -33 -26 -30 -34 3 -7 0
-15 -7 -18 -9 -3 -9 -5 0 -5 16 -1 -22 -67 -42 -75 -8 -3 -15 -11 -15 -17 0
-8 4 -8 15 1 9 7 25 14 38 15 33 4 33 3 33 25 0 11 -5 18 -11 16 -5 -2 -9 -9
-7 -15 1 -6 -2 -11 -8 -11 -15 0 -12 16 5 30 9 7 14 19 11 27 -3 7 -1 13 4 13
5 0 7 6 4 14 -8 20 14 30 32 15 13 -11 15 -10 14 2 -4 27 0 40 11 33 8 -4 7
-9 -2 -15 -8 -5 -9 -9 -3 -9 10 0 14 -12 15 -52 0 -15 3 -15 19 -5 16 10 17
13 5 20 -8 4 -15 13 -15 20 0 8 3 7 9 -2 5 -8 14 -10 21 -6 9 5 11 4 6 -3 -10
-16 6 -15 24 1 12 10 12 9 1 -5 -11 -14 -10 -17 6 -17 46 -1 51 -4 47 -27 -2
-13 0 -26 6 -29 5 -3 10 1 10 9 0 9 5 16 10 16 7 0 7 -7 -1 -21 -9 -17 -8 -20
3 -16 7 2 12 10 10 17 -3 11 0 11 12 1 8 -7 20 -10 25 -6 7 4 8 -1 4 -12 -6
-16 -5 -16 10 -4 9 7 15 16 13 20 -3 4 4 8 15 8 15 1 19 -3 14 -17 -3 -10 0
-22 6 -26 9 -5 10 -2 6 12 -7 19 -7 19 8 0 8 -10 12 -23 9 -27 -10 -17 10 -39
26 -29 8 5 10 10 4 10 -7 0 -14 11 -18 23 -3 13 -15 36 -26 50 -20 25 -23 26
-48 13 -26 -13 -38 -10 -81 21 -2 2 -5 11 -6 21 0 9 -4 23 -9 30 -10 17 -27
15 -20 -3 4 -8 11 -12 17 -8 6 3 7 1 3 -5 -5 -9 -13 -9 -29 0 -12 7 -31 13
-42 13 -32 2 -54 16 -49 29 3 7 -2 19 -11 26 -11 9 -15 9 -15 1z"/>
<path d="M5510 1281 c0 -5 9 -12 19 -16 11 -3 18 -12 15 -19 -3 -7 2 -19 11
-26 9 -8 15 -8 15 -2 0 6 -5 14 -11 18 -8 4 -7 9 2 15 11 7 11 9 1 9 -7 0 -10
5 -6 12 4 6 3 8 -4 4 -6 -3 -13 -2 -17 4 -8 13 -25 13 -25 1z"/>
<path d="M5740 1261 c0 -6 4 -13 10 -16 6 -3 7 1 4 9 -7 18 -14 21 -14 7z"/>
<path d="M5510 1239 c0 -11 4 -18 9 -15 11 7 23 -22 15 -35 -3 -5 -2 -10 3
-10 58 -8 64 -8 53 6 -17 20 -3 37 23 29 20 -6 21 -5 7 12 -14 17 -14 18 2 6
9 -8 21 -11 27 -8 5 4 12 -3 16 -14 3 -11 12 -20 18 -20 7 0 4 -5 -5 -11 -25
-14 -23 -33 1 -19 17 9 19 7 16 -12 -5 -22 10 -48 27 -48 6 0 5 7 -3 16 -10
13 -10 17 0 24 11 6 11 9 0 14 -8 3 -5 4 6 1 15 -4 21 0 22 15 2 17 -1 18 -18
7 -17 -10 -22 -9 -32 8 -7 11 -12 26 -12 32 0 7 -4 12 -9 12 -5 0 -13 5 -17
13 -7 11 -9 11 -9 -1 0 -11 -3 -11 -14 -2 -19 16 -52 -1 -61 -29 -3 -11 -11
-20 -16 -20 -6 0 -8 4 -5 9 3 5 -1 14 -9 21 -8 7 -15 19 -15 26 0 8 -4 14 -10
14 -5 0 -10 -9 -10 -21z"/>
<path d="M5396 1194 c-3 -9 -4 -19 -1 -24 2 -4 -4 -15 -15 -25 -11 -10 -20
-15 -20 -10 0 4 -7 2 -15 -5 -14 -11 -14 -15 0 -36 16 -25 7 -37 -22 -28 -10
3 -14 2 -8 -3 13 -10 13 -28 2 -40 -11 -11 -66 -13 -72 -2 -3 4 -12 6 -20 3
-11 -4 -12 -11 -5 -24 5 -9 7 -29 4 -43 -3 -21 -1 -25 11 -21 13 5 13 9 3 22
-11 13 -11 14 0 8 8 -5 11 -3 10 6 -3 14 14 15 47 3 17 -6 17 -4 -4 14 -13 12
-19 21 -13 21 5 0 15 -7 22 -15 7 -9 18 -14 24 -12 6 2 16 -3 22 -11 9 -12 14
-12 30 -3 15 10 15 11 2 7 -11 -3 -23 3 -33 17 -8 12 -15 16 -15 9 0 -7 -5
-10 -11 -6 -17 10 9 23 35 17 20 -4 19 -3 -4 17 -23 20 -23 20 -2 10 15 -7 22
-7 22 0 0 5 -5 10 -11 10 -8 0 -7 5 1 15 19 22 35 3 21 -24 -7 -13 -8 -21 -2
-21 12 0 35 40 24 40 -4 0 -1 5 7 10 8 5 15 22 16 37 0 20 5 28 17 27 9 -1 17
2 17 8 0 5 5 6 11 3 5 -4 19 1 30 11 18 16 20 16 38 0 11 -10 25 -15 30 -11 6
3 11 1 11 -6 0 -8 4 -8 15 1 8 7 15 17 15 22 0 6 -6 6 -14 -1 -11 -9 -15 -9
-19 1 -4 10 -6 10 -6 0 -1 -9 -7 -8 -26 4 -23 15 -27 15 -50 0 -18 -12 -25
-13 -25 -4 0 9 -3 8 -10 -2 -5 -8 -10 -11 -10 -5 0 5 -5 4 -12 -3 -16 -16 -28
-15 -28 3 0 8 9 20 20 27 24 15 26 28 4 28 -8 0 -13 -4 -10 -9 3 -5 -1 -11 -9
-14 -9 -4 -12 -1 -8 9 3 7 3 14 0 14 -3 0 -8 -7 -11 -16z m6 -62 c-7 -2 -12
-8 -12 -13 0 -6 5 -7 10 -4 6 3 10 1 10 -4 0 -6 -6 -11 -12 -11 -9 0 -8 -3 2
-10 11 -7 7 -8 -14 -6 -32 3 -54 30 -35 42 8 4 9 3 5 -4 -4 -7 -5 -12 -2 -12
2 0 12 -3 22 -7 11 -4 15 -3 11 4 -10 16 3 44 16 36 8 -5 7 -8 -1 -11z m-152
-126 c0 -3 -4 -8 -10 -11 -5 -3 -10 -1 -10 4 0 6 5 11 10 11 6 0 10 -2 10 -4z"/>
<path d="M5510 1200 c0 -5 5 -10 10 -10 6 0 10 5 10 10 0 6 -4 10 -10 10 -5 0
-10 -4 -10 -10z"/>
<path d="M5590 1203 c0 -3 8 -15 17 -25 16 -17 16 -20 0 -35 -9 -10 -29 -17
-44 -18 -24 0 -28 -4 -29 -32 -1 -18 0 -33 2 -33 12 0 34 14 34 22 0 5 -4 6
-10 3 -5 -3 -10 -1 -10 5 0 7 7 9 16 6 11 -4 15 -2 11 7 -3 8 1 14 8 14 7 0
11 -6 8 -14 -3 -7 0 -13 7 -13 6 0 8 4 5 10 -4 6 1 7 12 4 16 -5 16 -4 -1 10
-11 9 -16 16 -10 17 5 0 17 2 26 4 10 2 16 -2 15 -7 -1 -6 4 -13 12 -16 8 -2
11 0 7 6 -3 6 2 16 11 22 16 10 15 10 -4 5 -25 -7 -32 12 -12 32 9 9 7 12 -10
10 -16 -1 -20 -6 -16 -22 3 -11 -2 -5 -12 13 -15 29 -33 43 -33 25z"/>
<path d="M5626 1201 c-4 -5 1 -8 9 -7 21 3 31 16 12 16 -9 0 -18 -4 -21 -9z"/>
<path d="M5796 1181 c-10 -11 -15 -24 -12 -29 6 -11 -23 -26 -32 -17 -3 3 0 5
6 5 7 0 12 7 12 15 0 8 -5 15 -11 15 -5 0 -8 -4 -4 -9 3 -6 -4 -15 -15 -21
-11 -6 -18 -15 -15 -21 4 -5 11 -7 16 -4 5 4 9 1 9 -5 0 -6 13 -1 28 12 16 13
25 26 19 29 -5 4 -5 9 2 13 11 7 15 -4 12 -36 -3 -25 4 -22 24 8 9 15 13 24 7
20 -13 -8 -36 20 -27 34 10 17 -1 12 -19 -9z"/>
<path d="M5503 1145 c-6 -9 -23 -17 -41 -17 -29 -1 -30 -2 -14 -15 9 -8 12
-12 5 -9 -6 4 -15 1 -19 -5 -4 -8 -3 -9 4 -5 7 4 12 2 12 -3 0 -6 -4 -11 -10
-11 -5 0 -16 -13 -25 -30 -8 -16 -28 -36 -43 -44 -15 -9 -22 -16 -17 -17 6 -1
15 -2 20 -3 10 -1 15 -9 15 -26 0 -5 -3 -9 -7 -9 -21 3 -33 -2 -27 -12 4 -8 9
-7 15 2 5 9 9 9 9 3 0 -7 8 -11 18 -10 11 1 16 -6 15 -17 -1 -12 4 -17 14 -13
8 3 19 6 24 6 5 0 9 5 9 11 0 6 -7 9 -15 5 -8 -3 -16 -1 -16 4 -1 6 -3 15 -4
20 -1 6 -3 13 -4 18 -1 4 -6 0 -12 -8 -9 -12 -10 -12 -5 4 4 10 1 25 -5 32 -8
10 -8 14 0 14 6 0 11 -4 11 -10 0 -5 11 0 25 12 32 28 32 43 0 22 -23 -15 -25
-15 -19 0 3 9 10 13 15 10 5 -3 8 0 7 8 -2 7 4 12 13 10 11 -1 16 4 15 15 0
12 5 17 17 16 12 0 16 4 13 13 -3 7 0 16 6 20 7 5 8 2 3 -5 -6 -10 -3 -11 14
-1 22 11 24 31 4 37 -6 2 -15 -3 -20 -12z"/>
<path d="M5626 1120 c7 -9 8 -23 3 -35 -11 -29 -11 -32 6 -32 11 0 14 7 9 21
-4 15 -3 17 4 8 7 -11 10 -10 16 3 7 18 30 16 32 -3 1 -7 2 -16 3 -22 0 -5 8
-7 17 -3 13 5 13 8 2 15 -9 6 -5 7 11 3 13 -4 21 -3 18 2 -3 5 3 9 13 9 10 0
16 -4 13 -9 -3 -5 5 -6 18 -2 14 4 19 3 12 -2 -9 -6 -7 -12 7 -21 16 -10 18
-9 17 9 -1 12 -12 25 -24 30 -13 5 -23 11 -23 13 0 3 7 3 15 0 11 -5 13 -2 8
11 -6 17 -7 17 -22 -1 -22 -27 -70 -27 -93 -1 -11 12 -17 17 -14 10 11 -21
-15 -25 -37 -6 -12 10 -17 11 -11 3z"/>
<path d="M5830 1115 c-6 -8 -8 -20 -4 -27 27 -42 11 -61 -31 -37 -32 19 -36
19 -65 4 -17 -9 -28 -20 -25 -25 8 -13 26 -13 23 -1 -2 5 0 8 3 8 3 -1 14 5
25 13 18 14 18 14 5 -3 -8 -9 -11 -20 -7 -24 3 -4 13 2 21 13 11 13 14 14 13
4 -2 -9 4 -14 15 -14 9 1 17 -2 17 -7 0 -18 36 14 37 32 1 12 -3 17 -9 13 -7
-4 -8 -2 -4 5 4 6 4 18 -1 24 -4 7 -1 5 8 -4 14 -16 16 -16 27 0 10 13 10 11
1 -7 -13 -28 -7 -38 11 -17 14 17 6 47 -12 44 -26 -3 -39 1 -33 11 9 15 -1 12
-15 -5z"/>
<path d="M5501 1084 c-14 -33 -12 -37 13 -18 12 8 15 14 7 14 -11 0 -11 3 -1
15 7 8 8 15 3 15 -5 0 -15 -12 -22 -26z"/>
<path d="M5470 1080 c0 -5 5 -10 10 -10 6 0 10 5 10 10 0 6 -4 10 -10 10 -5 0
-10 -4 -10 -10z"/>
<path d="M5574 1068 c-3 -10 -10 -16 -15 -13 -10 7 -12 -8 -2 -19 4 -3 13 4
20 16 l14 23 -6 -22 c-4 -16 -2 -22 7 -20 7 2 10 2 6 0 -5 -3 -8 -9 -8 -14 0
-6 5 -7 10 -4 9 6 15 -8 11 -29 -1 -5 5 -6 14 -2 9 3 19 6 21 6 2 0 4 5 4 11
0 5 -4 8 -9 5 -5 -3 -11 1 -15 9 -3 8 0 17 6 21 6 4 8 3 5 -3 -4 -6 0 -13 8
-17 18 -7 20 8 3 22 -13 10 -18 12 -40 12 -9 0 -9 3 0 12 17 17 15 24 -8 24
-11 0 -23 -8 -26 -18z"/>
<path d="M5662 1066 c-9 -20 -7 -26 18 -45 18 -13 27 -27 24 -36 -4 -11 -2
-13 9 -9 8 3 18 0 22 -6 9 -14 -14 -32 -29 -23 -5 4 -7 -1 -3 -11 4 -10 7 -20
7 -22 0 -2 5 -4 11 -4 5 0 7 5 4 10 -6 10 7 14 35 10 12 -1 13 1 3 11 -16 16
-17 29 -3 29 6 0 9 -5 8 -11 -2 -6 2 -13 7 -15 6 -2 11 5 11 16 0 11 -5 21
-11 22 -5 0 -14 2 -20 3 -5 2 -16 3 -24 4 -22 2 -6 12 23 15 14 2 23 -1 19 -6
-3 -6 4 -7 18 -3 16 4 20 3 11 -3 -11 -8 -11 -10 1 -15 9 -3 18 1 21 9 8 20
-29 33 -82 28 -23 -2 -42 0 -43 4 0 4 -3 16 -5 27 -3 11 -6 26 -6 33 -2 19
-14 14 -26 -12z"/>
<path d="M5470 1050 c0 -8 -12 -26 -26 -41 -24 -25 -26 -58 -2 -43 6 4 5 10
-3 15 -11 7 -10 9 4 9 10 0 16 4 12 9 -3 5 3 12 14 16 10 3 18 12 17 20 -3 20
-16 32 -16 15z"/>
<path d="M5500 1045 c-15 -18 1 -20 18 -3 9 9 12 9 12 0 0 -7 -5 -12 -12 -12
-6 0 -8 -3 -4 -7 7 -8 11 -9 37 -12 5 0 7 -5 4 -11 -3 -5 -1 -10 4 -10 6 0 11
5 11 11 0 5 5 7 11 3 8 -4 7 -9 -2 -15 -8 -5 -9 -9 -4 -9 6 0 15 4 21 8 11 8
-13 35 -37 40 -8 2 -18 10 -22 18 -10 18 -21 18 -37 -1z"/>
<path d="M5890 1051 c-8 -6 -17 -8 -21 -5 -9 5 -3 -51 6 -66 4 -6 12 -7 18 -3
7 4 4 -5 -6 -21 -10 -15 -16 -34 -13 -42 3 -8 2 -12 -3 -9 -5 3 -12 1 -16 -5
-3 -5 -1 -10 4 -10 6 0 11 -5 11 -11 0 -8 -5 -7 -15 1 -9 7 -18 10 -22 7 -3
-4 2 -9 11 -13 9 -3 16 -10 16 -15 0 -4 -7 -5 -17 -2 -11 4 -14 3 -9 -5 26
-42 64 44 70 161 2 26 3 47 2 47 -1 0 -8 -4 -16 -9z m2 -43 c-5 -21 -6 -21
-12 -2 -8 21 -3 37 10 29 4 -3 6 -15 2 -27z"/>
<path d="M5275 1040 c-3 -5 -1 -10 4 -10 6 0 11 5 11 10 0 6 -2 10 -4 10 -3 0
-8 -4 -11 -10z"/>
<path d="M5485 1012 c-18 -13 -56 -72 -46 -72 6 0 14 8 20 18 7 13 9 8 7 -22
-4 -44 2 -76 15 -76 4 0 7 9 6 20 -1 11 -6 20 -12 20 -5 0 -3 5 5 10 13 9 13
11 0 20 -11 7 -11 10 -2 10 7 0 10 5 6 11 -9 16 18 30 33 17 14 -11 19 3 6 16
-5 4 -8 13 -8 19 0 13 -17 19 -30 9z m10 -21 c-3 -6 -11 -11 -16 -11 -5 0 -4
6 3 14 14 16 24 13 13 -3z"/>
<path d="M5659 998 c-9 -22 -17 -25 -56 -23 -30 1 -50 7 -58 19 -8 10 -16 13
-19 7 -4 -5 3 -15 14 -21 12 -6 19 -17 17 -24 -3 -8 5 -13 23 -13 21 0 27 4
23 16 -4 14 -3 14 7 1 10 -13 12 -13 17 -1 4 10 9 8 20 -10 l14 -24 -6 25 c-5
19 -4 22 4 10 6 -8 8 -24 4 -35 -5 -18 -4 -19 12 -5 17 13 18 13 10 0 -5 -8
-4 -12 0 -7 14 12 12 87 -2 98 -9 8 -15 5 -24 -13z m30 -42 c-3 -3 -11 5 -18
17 -13 21 -12 21 5 5 10 -10 16 -20 13 -22z"/>
<path d="M5839 1017 c-8 -46 -22 -68 -50 -83 -16 -8 -33 -12 -38 -9 -5 2 -11
-2 -14 -10 -4 -9 -16 -13 -37 -10 -28 3 -38 -4 -23 -18 3 -4 12 -2 20 5 11 9
13 8 11 -2 -2 -7 3 -15 11 -18 8 -3 11 0 7 6 -4 6 6 18 23 27 27 13 30 13 25
0 -5 -13 -3 -13 22 0 15 7 29 24 31 36 2 13 11 31 20 41 13 14 14 21 5 30 -7
7 -13 9 -13 5z"/>
<path d="M5270 964 c23 -14 24 -14 2 -9 -12 4 -22 3 -21 -2 3 -20 -2 -34 -11
-28 -5 3 -10 1 -10 -4 0 -6 2 -11 4 -11 2 0 12 -3 21 -6 9 -4 15 -3 14 2 -3
20 2 35 10 30 5 -3 11 1 15 9 3 8 -3 19 -14 25 -29 16 -38 11 -10 -6z"/>
<path d="M5845 970 c-3 -5 -4 -14 -1 -19 4 -5 0 -12 -6 -14 -10 -4 -10 -6 0
-6 7 -1 4 -9 -8 -21 -11 -11 -20 -27 -20 -35 0 -8 -6 -15 -12 -15 -9 0 -8 -4
2 -11 11 -8 9 -9 -10 -3 -22 6 -23 5 -11 -10 11 -13 11 -19 1 -31 -7 -8 -8
-15 -2 -15 12 0 33 25 26 32 -2 3 2 8 11 12 18 6 13 -6 -13 -36 -8 -10 -11
-18 -5 -18 5 0 19 11 31 24 16 20 18 27 8 35 -18 15 -13 49 10 65 10 8 16 18
12 22 -4 4 0 12 9 19 9 7 13 17 9 23 -9 15 -23 15 -31 2z"/>
<path d="M5310 961 c0 -6 -8 -19 -19 -30 -17 -17 -17 -18 0 -30 16 -10 18 -8
16 11 -1 15 3 23 13 23 8 0 15 -7 14 -16 -1 -11 7 -16 26 -16 19 0 26 5 23 13
-2 7 -11 10 -19 7 -8 -3 -15 0 -15 6 -1 6 -2 17 -3 23 -1 16 -36 24 -36 9z"/>
<path d="M5496 961 c-4 -6 -1 -11 6 -11 8 0 9 -3 3 -8 -11 -8 -16 -41 -6 -43
3 -1 23 -3 44 -4 32 -1 36 1 31 17 -3 10 0 18 6 18 6 0 8 -4 5 -10 -9 -14 9
-12 24 3 10 10 11 9 6 -5 -4 -10 -12 -18 -19 -18 -6 0 -4 -5 4 -11 13 -9 12
-10 -2 -5 -18 5 -24 -4 -12 -17 9 -8 46 12 40 21 -3 5 -1 14 3 21 6 9 11 10
15 2 4 -6 2 -11 -4 -11 -6 0 -8 -5 -5 -10 4 -6 11 -8 16 -4 5 3 9 2 8 -3 -3
-20 2 -30 16 -30 8 0 15 5 15 11 0 6 4 4 9 -4 6 -8 7 -18 5 -22 -5 -8 16 -12
49 -10 9 1 17 -3 17 -9 0 -5 -4 -8 -8 -5 -4 2 -14 -5 -21 -16 -11 -18 -11 -20
3 -15 16 6 30 -6 19 -17 -11 -11 -14 -48 -3 -41 5 3 10 13 10 21 0 8 4 13 9 9
5 -3 12 -1 16 4 3 6 -4 15 -15 21 -17 9 -19 14 -10 25 14 17 3 38 -14 32 -7
-3 -19 -1 -27 4 -12 7 -12 9 1 10 8 1 20 2 25 4 6 1 15 3 22 3 7 1 17 12 24
23 9 17 8 20 -3 16 -7 -2 -12 -11 -10 -18 2 -9 -4 -7 -17 5 -23 21 -29 9 -8
-14 6 -8 1 -6 -12 5 -14 11 -21 15 -18 8 10 -15 -12 -28 -25 -15 -6 6 -16 8
-23 6 -7 -3 -18 8 -25 25 -7 17 -17 31 -22 31 -5 0 -6 5 -2 12 5 7 3 8 -7 2
-8 -4 -34 -9 -59 -9 -30 -1 -44 -5 -42 -13 1 -7 -2 -12 -8 -12 -17 0 -11 19
10 32 11 7 20 17 20 22 0 4 -7 3 -16 -5 -13 -10 -17 -10 -24 0 -5 9 -10 10
-14 2z m59 -41 c3 -5 1 -10 -4 -10 -6 0 -11 5 -11 10 0 6 2 10 4 10 3 0 8 -4
11 -10z"/>
<path d="M5710 959 c0 -5 5 -7 10 -4 6 3 10 8 10 11 0 2 -4 4 -10 4 -5 0 -10
-5 -10 -11z"/>
<path d="M5790 960 c0 -5 5 -10 10 -10 6 0 10 5 10 10 0 6 -4 10 -10 10 -5 0
-10 -4 -10 -10z"/>
<path d="M5065 921 c-8 -8 -15 -11 -15 -5 0 11 -29 15 -31 5 -5 -23 -4 -61 2
-61 15 0 21 21 10 34 -9 10 -4 12 24 11 19 -2 35 2 35 7 0 6 6 5 15 -2 16 -13
38 -4 32 13 -5 17 -54 15 -72 -2z"/>
<path d="M5196 931 c-10 -15 3 -33 17 -24 8 5 8 2 0 -9 -7 -8 -10 -18 -6 -21
13 -14 21 -6 18 19 -3 31 -20 51 -29 35z"/>
<path d="M3065 921 c-3 -6 -15 -11 -25 -11 -27 0 -32 -14 -14 -36 9 -10 13
-14 10 -7 -7 13 4 22 34 28 17 3 19 1 10 -16 -8 -13 -8 -19 0 -19 6 0 13 7 16
15 6 14 8 13 19 -2 9 -11 10 -20 3 -24 -5 -4 -3 -9 6 -12 9 -4 16 -2 16 4 0 6
5 7 11 3 16 -9 -10 -24 -30 -17 -13 5 -14 3 -4 -7 9 -10 10 -17 2 -27 -7 -8
-8 -13 -1 -13 5 0 16 10 25 23 l15 22 26 -29 c15 -15 30 -26 33 -23 3 4 -28
40 -70 82 -43 44 -78 72 -82 66z"/>
<path d="M5310 920 c0 -5 5 -10 10 -10 6 0 10 5 10 10 0 6 -4 10 -10 10 -5 0
-10 -4 -10 -10z"/>
<path d="M5390 920 c0 -5 5 -10 10 -10 6 0 10 5 10 10 0 6 -4 10 -10 10 -5 0
-10 -4 -10 -10z"/>
<path d="M4929 882 c-41 -42 -46 -55 -18 -47 19 5 21 4 9 -4 -10 -7 -11 -11
-2 -11 6 0 12 -7 12 -16 0 -8 4 -12 10 -9 15 9 5 48 -13 54 -15 6 -15 8 3 18
16 11 18 10 13 -4 -4 -11 -3 -14 6 -9 7 5 10 15 7 23 -4 9 -2 11 6 7 7 -5 8
-3 3 6 -5 8 -4 11 2 7 6 -4 9 -18 8 -32 -2 -14 1 -27 6 -31 5 -3 9 0 9 5 0 6
5 11 11 11 8 0 8 -4 2 -12 -14 -17 -12 -49 1 -45 6 2 11 10 12 18 2 28 4 30
23 19 26 -13 73 4 65 24 -3 8 -12 12 -19 10 -17 -7 -29 12 -14 22 8 4 9 3 5
-4 -4 -7 -2 -12 3 -12 6 0 11 6 11 13 0 7 3 8 8 2 4 -5 14 -10 22 -10 8 0 18
5 22 10 5 6 8 5 8 -2 0 -7 5 -13 11 -13 5 0 7 5 3 12 -4 7 -3 8 5 4 15 -10 3
-29 -14 -22 -9 3 -13 -2 -12 -15 1 -10 4 -19 8 -19 4 0 16 -3 26 -6 16 -5 16
-4 -1 10 -11 9 -16 16 -10 17 5 0 17 2 26 4 10 2 17 0 17 -3 -3 -20 3 -20 22
-1 14 14 27 18 42 13 20 -6 21 -5 7 12 -14 18 -14 18 4 4 17 -13 19 -13 14 0
-6 20 -63 19 -63 0 0 -14 -6 -16 -36 -11 -6 0 -9 7 -6 14 3 9 -15 12 -73 12
-52 0 -76 -3 -73 -11 6 -16 -22 -35 -41 -28 -9 3 -16 10 -16 16 0 5 5 6 10 3
6 -3 10 -2 10 3 0 7 -45 34 -53 31 -1 0 -14 -12 -28 -27z m145 -42 c-10 -4
-25 -5 -32 -2 -22 8 6 21 31 14 20 -5 20 -6 1 -12z"/>
<path d="M5308 876 c-9 -20 -17 -26 -32 -22 -12 3 -28 1 -36 -4 -8 -5 -10 -10
-5 -10 6 0 3 -5 -5 -10 -10 -6 -21 -4 -35 8 -15 13 -17 13 -8 1 10 -12 9 -20
-2 -36 -13 -19 -13 -22 1 -27 22 -8 31 -7 17 2 -8 5 -9 13 -3 22 8 13 10 12
11 -2 1 -10 2 -23 3 -28 0 -6 13 -17 28 -24 24 -13 26 -13 25 5 -1 14 -7 18
-22 14 -11 -3 -14 -2 -7 1 10 5 9 9 -5 20 -15 12 -16 15 -3 23 8 5 18 7 23 4
5 -3 6 4 2 16 -4 13 -2 21 5 21 6 0 9 -4 6 -9 -7 -11 13 -9 32 2 7 5 12 4 12
-2 0 -6 5 -11 11 -11 5 0 7 5 4 10 -3 6 -1 10 5 10 7 0 9 -7 6 -16 -4 -10 -2
-14 6 -11 7 2 12 10 11 16 -2 6 2 11 7 11 14 0 13 -13 -2 -28 -13 -13 1 -16
17 -4 13 9 13 35 0 44 -6 4 -23 5 -38 4 -22 -3 -25 -1 -16 11 7 7 9 16 6 20
-4 3 -12 -7 -19 -21z"/>
<path d="M5345 889 c-4 -6 -4 -13 -1 -16 3 -4 6 -1 6 5 0 7 16 2 37 -10 33
-20 36 -20 30 -4 -4 10 -7 22 -7 27 0 5 -5 9 -11 9 -6 0 -8 -7 -5 -17 6 -16 6
-16 -12 0 -22 20 -28 21 -37 6z"/>
<path d="M5424 889 c-10 -17 13 -36 27 -22 12 12 4 33 -11 33 -5 0 -12 -5 -16
-11z"/>
<path d="M3060 879 c0 -5 -5 -7 -12 -3 -7 4 -8 3 -4 -4 6 -10 -32 -39 -44 -33
-3 2 -12 7 -21 12 -21 11 -32 0 -17 -18 12 -15 6 -25 -20 -30 -30 -6 -36 -9
-61 -22 -18 -10 -25 -10 -35 0 -8 9 -8 10 1 5 14 -8 43 3 43 16 0 7 -5 6 -13
-1 -8 -6 -22 -9 -33 -7 -15 3 -19 -2 -20 -23 -1 -14 1 -20 3 -13 4 10 8 10 19
2 10 -9 18 -8 35 3 12 9 28 13 37 10 10 -4 13 -2 8 5 -5 8 -1 10 10 5 13 -5
15 -3 9 7 -6 9 -4 11 4 5 8 -4 18 1 26 13 17 24 56 37 48 16 -4 -10 0 -12 11
-8 9 3 14 10 11 14 -3 5 -1 11 4 14 5 4 7 -7 4 -25 -4 -30 -4 -30 14 -12 13
12 16 21 9 26 -6 5 -2 6 9 3 16 -5 21 -1 22 15 2 17 -1 19 -10 10 -19 -19 -39
-13 -32 9 3 11 4 20 1 20 -3 0 -6 -5 -6 -11z"/>
<path d="M5502 874 c17 -17 38 -12 38 9 0 8 -3 8 -9 -2 -6 -9 -11 -10 -15 -2
-4 6 -12 11 -19 11 -7 0 -5 -7 5 -16z"/>
<path d="M5552 874 c-8 -14 -23 -19 -59 -20 -69 -2 -73 -3 -73 -15 0 -6 6 -9
14 -6 16 6 26 -10 18 -30 -2 -7 -9 -13 -14 -13 -6 0 -5 6 2 15 8 9 9 15 2 15
-23 0 -24 -24 -2 -40 13 -9 20 -22 16 -28 -4 -6 2 -10 14 -9 11 1 20 4 20 8 0
4 3 16 6 26 5 17 5 17 -9 0 -12 -14 -16 -15 -20 -4 -3 8 -1 20 4 28 7 12 9 12
9 -1 0 -13 1 -13 10 0 14 21 12 28 -6 26 -9 0 -19 6 -21 14 -4 13 -3 13 6 0
10 -13 12 -13 21 0 7 11 10 11 10 2 0 -7 5 -10 11 -6 16 9 29 -17 19 -37 -5
-9 -6 -19 -3 -23 4 -4 13 4 20 16 8 15 12 18 13 8 0 -13 1 -13 10 0 14 21 12
30 -4 24 -21 -8 -31 16 -13 33 13 14 16 13 22 -6 6 -19 9 -20 23 -9 15 12 16
11 3 -5 -17 -21 -9 -34 8 -13 13 16 6 40 -9 31 -5 -3 -15 4 -23 16 -14 20 -16
20 -25 3z"/>
<path d="M5626 871 c-4 -5 -3 -17 0 -26 6 -16 -24 -48 -37 -39 -4 2 -10 -3
-13 -12 -3 -8 -10 -13 -14 -10 -5 3 -14 -5 -20 -18 -9 -19 -8 -25 4 -30 10 -4
18 4 26 24 10 29 18 34 46 31 7 -1 11 4 10 11 -2 6 3 13 10 14 6 1 17 2 22 3
6 0 4 13 -5 31 -17 32 -21 35 -29 21z"/>
<path d="M5110 860 c0 -5 5 -10 12 -10 6 0 3 -6 -8 -14 -14 -11 -16 -17 -7
-26 16 -17 33 -3 29 23 -3 12 -5 25 -5 30 -1 11 -21 8 -21 -3z"/>
<path d="M4959 855 c-5 -20 -2 -32 11 -43 8 -8 10 -11 3 -8 -6 4 -16 -2 -22
-11 -10 -17 -12 -16 -29 6 -15 19 -23 21 -37 14 -23 -13 -28 -58 -9 -74 9 -7
14 -8 14 -1 0 6 -5 14 -10 17 -16 10 -1 25 18 18 14 -6 15 -4 4 9 -9 11 -10
18 -2 23 6 4 9 3 8 -2 -2 -4 7 -18 20 -30 12 -13 23 -21 23 -18 1 3 2 11 3 18
2 13 21 11 46 -4 12 -8 11 -9 -5 -4 -15 4 -21 0 -22 -14 -1 -18 1 -18 25 -5
15 7 28 18 28 24 1 5 2 15 3 21 0 5 6 7 12 3 8 -4 7 -9 -2 -15 -8 -5 -9 -9 -4
-9 25 0 33 15 19 34 -8 11 -14 16 -14 10 0 -5 -5 -2 -11 6 -9 13 -10 13 -6 -2
8 -23 -20 -45 -35 -30 -7 7 -9 12 -5 12 4 0 2 10 -5 23 -7 12 -11 25 -10 30 1
4 0 7 -3 7 -3 0 -6 -2 -6 -5z"/>
<path d="M5390 840 c0 -5 6 -10 13 -10 6 0 -3 -9 -22 -21 -18 -11 -31 -23 -27
-26 3 -3 16 2 28 13 13 10 20 15 15 10 -4 -5 0 -17 9 -27 18 -20 10 -43 -13
-35 -8 3 -13 1 -11 -5 2 -6 6 -9 8 -7 3 1 20 -8 38 -21 18 -13 36 -21 38 -18
3 3 -6 13 -20 22 -14 10 -23 22 -19 31 3 8 9 11 14 8 5 -3 9 -1 9 5 0 5 -9 13
-21 16 -15 5 -19 13 -16 27 3 11 3 26 0 34 -6 16 -23 19 -23 4z"/>
<path d="M5550 840 c0 -5 5 -10 10 -10 6 0 10 5 10 10 0 6 -4 10 -10 10 -5 0
-10 -4 -10 -10z"/>
<path d="M5670 838 c0 -4 6 -8 13 -8 6 -1 1 -7 -13 -14 -14 -8 -28 -12 -33 -9
-4 2 -6 -1 -5 -9 2 -7 -4 -13 -12 -13 -32 -1 -56 -32 -25 -32 10 0 14 6 10 16
-4 12 -2 12 9 -2 11 -14 15 -15 20 -5 3 7 4 4 1 -8 -4 -14 0 -21 10 -21 18 0
18 -1 5 31 -6 17 -6 27 2 32 6 4 8 3 5 -3 -7 -11 22 -28 31 -18 3 3 1 5 -5 5
-5 0 -10 7 -10 14 0 8 5 14 11 13 5 -1 11 7 12 19 0 11 -5 21 -12 21 -8 0 -14
-4 -14 -9z"/>
<path d="M5262 807 c-6 -12 -11 -16 -11 -9 -1 7 -6 10 -12 6 -8 -4 1 -14 22
-25 19 -10 27 -18 19 -19 -13 0 -13 -1 0 -10 21 -14 30 -12 24 4 -8 22 15 30
35 12 10 -9 22 -13 27 -9 5 5 0 -2 -10 -15 -19 -22 -19 -23 3 -43 12 -11 18
-25 15 -31 -5 -8 -1 -9 10 -5 10 4 20 7 22 7 2 0 4 5 4 11 0 5 -4 7 -10 4 -5
-3 -11 -1 -11 4 -3 21 -4 26 -12 38 -4 7 -3 21 3 32 14 26 13 38 -2 23 -19
-19 -40 -15 -33 7 11 35 -67 51 -83 18z m49 -7 c10 6 20 6 23 2 3 -5 0 -9 -7
-10 -7 0 -21 -3 -33 -5 -14 -4 -21 0 -21 9 0 10 4 11 10 5 7 -7 16 -7 28 -1z
m59 -80 c0 -5 -5 -10 -11 -10 -5 0 -7 5 -4 10 3 6 8 10 11 10 2 0 4 -4 4 -10z"/>
<path d="M5506 814 c-8 -21 -8 -24 5 -24 5 0 8 4 5 9 -4 5 -1 11 6 13 8 3 9 6
1 11 -6 4 -14 0 -17 -9z"/>
<path d="M2984 805 c-8 -20 -74 -58 -74 -42 0 7 -4 6 -10 -3 -5 -8 -10 -11
-10 -6 0 5 -6 4 -12 -2 -7 -5 -31 -8 -53 -6 -37 5 -39 4 -20 -10 12 -9 24 -11
31 -5 10 9 14 -1 15 -44 0 -11 5 -15 12 -10 20 12 37 12 37 0 0 -8 3 -7 9 2 6
9 11 10 15 2 4 -6 12 -11 18 -11 6 0 6 6 -2 15 -7 9 -19 14 -27 11 -7 -3 -13
-1 -13 4 0 5 -6 7 -14 4 -17 -6 -29 23 -14 32 6 4 8 3 4 -4 -3 -6 -2 -13 3
-16 5 -4 12 3 16 13 3 11 12 18 19 15 7 -3 19 2 26 11 14 17 30 20 30 4 0 -5
-4 -8 -9 -5 -5 3 -14 0 -20 -8 -10 -11 -7 -14 14 -12 14 0 26 3 26 6 1 3 3 15
4 28 3 27 22 51 22 27 0 -8 -5 -15 -11 -15 -6 0 -5 -4 3 -9 9 -6 10 -11 2 -15
-6 -4 -11 -12 -11 -18 0 -6 6 -6 15 2 9 7 14 19 11 27 -3 7 -1 13 5 13 6 0 6
7 -1 20 -13 24 -28 26 -36 5z"/>
<path d="M3080 810 c-8 -5 -10 -10 -5 -10 6 0 3 -5 -5 -10 -10 -7 -18 -5 -26
5 -9 12 -11 9 -12 -16 0 -17 -8 -37 -18 -43 -17 -13 -12 -36 7 -36 6 0 7 5 4
10 -9 15 13 40 30 34 8 -3 12 1 12 13 -1 10 5 18 13 18 17 0 41 26 34 37 -7
10 -16 10 -34 -2z"/>
<path d="M5065 810 c-3 -5 -5 -10 -3 -11 2 0 12 -3 23 -6 11 -2 27 -5 35 -5 8
0 24 3 35 5 11 3 22 6 25 6 2 1 -1 6 -8 13 -9 9 -16 7 -32 -7 -19 -17 -21 -17
-38 -2 -21 20 -28 21 -37 7z"/>
<path d="M5702 807 c-16 -18 -8 -49 14 -58 24 -10 39 -11 31 -2 -4 3 -2 12 5
20 8 10 8 12 -3 8 -8 -3 -23 1 -34 9 -14 10 -15 14 -5 13 8 -1 16 2 18 8 5 15
-14 17 -26 2z"/>
<path d="M3150 795 c0 -8 5 -15 10 -15 6 0 10 7 10 15 0 8 -4 15 -10 15 -5 0
-10 -7 -10 -15z"/>
<path d="M2771 769 c-5 -13 -10 -18 -10 -10 -1 8 -7 6 -18 -8 -10 -12 -29 -23
-41 -24 -13 -1 -33 -14 -44 -30 -14 -19 -24 -25 -32 -18 -7 6 -18 5 -30 -5
-10 -7 -23 -11 -27 -8 -8 5 -13 -9 -10 -28 0 -4 -9 -13 -22 -19 -41 -22 -49
-49 -13 -45 28 4 54 -9 43 -21 -5 -4 -12 -1 -16 6 -5 8 -11 9 -15 3 -3 -5 1
-12 9 -16 19 -7 47 3 39 15 -5 8 10 13 30 10 5 -1 6 5 2 14 -3 9 -6 19 -6 21
0 2 -5 4 -11 4 -5 0 -8 -4 -5 -9 9 -13 -19 -21 -35 -9 -11 8 -11 9 3 5 9 -3
19 1 22 9 5 12 1 14 -17 9 -15 -4 -18 -4 -8 3 8 6 10 15 6 22 -5 8 -4 11 3 6
6 -3 14 -1 17 5 4 5 13 8 21 5 8 -3 14 0 14 7 0 8 3 8 9 -2 7 -10 12 -8 25 10
10 15 16 18 16 9 1 -11 3 -11 11 3 5 9 7 23 4 30 -4 6 -1 5 7 -3 15 -18 38
-24 38 -11 0 5 -3 11 -7 14 -5 2 -3 2 4 1 7 -2 15 6 18 17 4 10 10 17 13 15 4
-2 18 1 30 8 21 11 22 14 8 25 -13 11 -17 10 -25 -10z m-231 -169 c0 -5 -5
-10 -11 -10 -5 0 -7 5 -4 10 3 6 8 10 11 10 2 0 4 -4 4 -10z"/>
<path d="M5070 765 c-13 -33 -13 -32 5 -32 11 0 14 7 9 21 -4 17 -3 18 5 6 10
-13 11 -13 11 0 0 13 1 13 10 0 9 -13 11 -13 20 0 9 13 10 13 10 0 0 -13 1
-13 11 0 8 12 9 11 5 -6 -5 -14 -2 -21 9 -21 18 0 18 -1 5 32 -8 22 -13 24
-30 15 -14 -8 -26 -8 -40 0 -17 9 -22 7 -30 -15z"/>
<path d="M3118 772 c-25 -5 -23 -21 2 -19 11 1 20 6 20 12 0 5 5 3 10 -5 9
-13 11 -13 20 0 7 11 10 11 10 2 0 -7 4 -10 10 -7 6 4 7 -1 3 -11 -4 -11 -3
-15 5 -10 6 3 15 -2 21 -11 6 -10 11 -15 11 -11 0 11 -23 58 -29 59 -21 4 -69
5 -83 1z"/>
<path d="M3230 769 c-11 -8 -12 -12 -2 -16 6 -2 10 -8 7 -12 -2 -5 2 -16 9
-27 12 -15 16 -16 29 -5 11 9 13 16 6 24 -5 7 -15 20 -22 29 -9 13 -16 15 -27
7z m40 -54 c0 -5 -5 -3 -10 5 -5 8 -10 20 -10 25 0 6 5 3 10 -5 5 -8 10 -19
10 -25z"/>
<path d="M5505 770 c-4 -6 -3 -16 3 -22 6 -6 12 -6 17 2 4 6 3 16 -3 22 -6 6
-12 6 -17 -2z"/>
<path d="M3070 760 c0 -5 5 -10 12 -10 20 0 -1 -13 -24 -15 -18 -1 -23 -8 -25
-36 -2 -28 1 -35 16 -36 12 -1 18 5 17 15 0 10 6 17 15 16 15 -1 18 16 10 69
-2 11 -21 9 -21 -3z m-4 -39 c8 7 14 7 14 1 0 -12 -26 -23 -34 -15 -3 4 -6 11
-5 17 0 6 3 5 6 -2 4 -10 8 -10 19 -1z"/>
<path d="M4890 753 c8 -12 16 -21 19 -21 20 2 31 -3 26 -12 -3 -5 -1 -10 4
-10 6 0 11 6 11 13 0 6 5 4 11 -5 5 -10 15 -18 21 -18 6 0 3 9 -6 19 -11 12
-15 25 -11 33 6 10 5 10 -5 1 -14 -13 -43 -6 -34 8 3 5 0 9 -5 9 -6 0 -11 -5
-11 -11 0 -8 -6 -7 -17 2 -15 13 -15 12 -3 -8z"/>
<path d="M5034 756 c-10 -8 -16 -17 -13 -20 3 -3 14 1 25 8 10 8 16 17 13 20
-3 3 -14 -1 -25 -8z"/>
<path d="M5183 758 c2 -7 11 -12 18 -10 10 3 11 0 3 -8 -16 -16 -53 -20 -61
-7 -10 15 -36 16 -45 1 -8 -11 -68 -12 -86 0 -7 4 -17 4 -22 1 -12 -7 -4 -25
11 -25 6 0 7 5 3 12 -5 7 -3 8 6 3 10 -6 9 -11 -5 -22 -22 -15 -32 -16 -40 -3
-3 5 -12 7 -20 4 -8 -4 -17 0 -20 8 -3 7 -18 14 -34 14 -23 1 -29 -3 -28 -20
0 -11 -3 -29 -7 -38 -7 -15 -5 -16 17 -5 14 6 23 15 20 19 -2 5 -10 5 -16 2
-7 -4 -5 1 4 11 14 14 21 15 38 6 22 -12 29 -31 10 -31 -5 0 -7 5 -4 10 3 6 2
10 -3 10 -8 0 -22 -22 -22 -34 0 -1 14 -2 30 -2 19 0 29 4 28 12 -2 7 2 13 7
13 6 0 9 -7 7 -14 -2 -12 2 -12 25 0 15 8 29 19 29 25 1 5 2 15 3 22 0 7 8 3
17 -8 11 -13 14 -14 11 -3 -3 9 1 16 9 16 7 0 11 -4 8 -9 -10 -16 16 -36 44
-34 34 2 55 14 49 30 -3 7 1 13 8 13 7 0 11 -7 8 -16 -3 -9 4 -5 16 9 26 31
26 37 0 51 -17 9 -20 8 -16 -3z m-42 -39 c28 -14 15 -27 -23 -24 -45 4 -45 4
-24 20 24 18 22 18 47 4z"/>
<path d="M5102 712 c-8 -6 -2 -9 18 -9 20 0 26 3 18 9 -7 4 -15 8 -18 8 -3 0
-11 -4 -18 -8z"/>
<path d="M5310 760 c0 -5 5 -10 10 -10 6 0 10 5 10 10 0 6 -4 10 -10 10 -5 0
-10 -4 -10 -10z"/>
<path d="M5390 760 c0 -5 5 -10 10 -10 6 0 10 5 10 10 0 6 -4 10 -10 10 -5 0
-10 -4 -10 -10z"/>
<path d="M5660 761 c0 -10 37 -35 52 -36 3 0 10 -4 15 -9 5 -5 2 -6 -6 -1 -9
5 -12 4 -7 -3 3 -6 1 -14 -5 -18 -7 -4 -9 -3 -5 4 3 6 2 13 -4 17 -5 3 -10 2
-10 -3 0 -15 -32 -24 -44 -12 -8 8 -6 9 9 4 17 -7 18 -6 5 8 -14 14 -16 14
-24 0 -12 -22 29 -55 53 -43 44 24 66 83 25 67 -8 -3 -14 -1 -14 4 0 5 -9 14
-20 20 -13 7 -20 7 -20 1z"/>
<path d="M3111 736 c-14 -17 -7 -36 12 -35 8 0 8 2 -1 6 -10 4 -10 8 -1 19 7
8 10 17 7 19 -3 3 -11 -1 -17 -9z"/>
<path d="M3139 741 c-1 -3 -3 -23 -4 -44 -1 -29 2 -37 12 -32 8 3 17 5 19 5 2
0 4 5 4 11 0 5 -4 7 -10 4 -5 -3 -10 -1 -10 5 0 7 7 9 16 6 10 -4 14 -2 11 6
-2 7 -10 12 -16 11 -6 -2 -11 2 -11 7 0 14 13 13 28 -2 13 -13 16 1 4 17 -8
11 -41 16 -43 6z"/>
<path d="M5317 739 c-9 -5 -21 -8 -26 -5 -4 3 -16 -3 -26 -14 -10 -11 -13 -20
-7 -20 6 0 16 8 21 18 7 11 10 13 11 3 0 -10 3 -11 14 -2 10 9 15 8 19 -2 3
-9 -2 -13 -16 -12 -29 3 -42 -6 -26 -16 11 -7 11 -9 -1 -9 -13 0 -13 -1 0 -10
22 -14 30 -12 24 5 -4 8 -1 15 6 15 6 0 8 -4 5 -10 -3 -5 -1 -10 4 -10 6 0 11
5 11 11 0 5 5 7 11 3 8 -4 7 -9 -2 -15 -8 -5 -9 -9 -4 -9 6 0 17 4 25 10 12 8
12 10 -2 15 -22 9 -31 35 -17 51 13 16 2 18 -24 3z"/>
<path d="M5573 735 c-11 -8 -23 -11 -27 -8 -3 4 -31 7 -61 8 l-54 2 24 -18
c28 -22 42 -25 26 -5 -10 12 -9 14 5 12 9 -1 20 -10 25 -19 5 -9 16 -14 24
-11 8 4 12 11 8 17 -4 6 -1 7 7 2 7 -4 16 -2 21 6 7 11 9 11 9 1 0 -7 5 -10
10 -7 6 4 7 12 3 18 -4 7 0 6 10 -2 20 -16 22 -22 6 -18 -6 1 -14 -4 -17 -12
-2 -8 0 -11 6 -7 6 3 14 1 18 -5 7 -12 -15 -31 -28 -23 -11 7 -10 -3 3 -29 9
-20 9 -21 -4 -4 -8 10 -17 14 -19 10 -3 -4 -3 -2 -2 5 4 13 -8 16 -19 6 -10
-11 13 -45 25 -38 7 5 8 2 3 -5 -4 -8 4 -7 24 3 17 9 31 22 31 29 0 8 -3 8 -9
-2 -5 -8 -11 -9 -15 -3 -3 5 1 12 9 16 8 3 17 1 20 -5 4 -5 11 -7 16 -3 6 4 2
14 -11 26 -12 11 -19 27 -16 36 11 34 -19 50 -51 27z"/>
<path d="M2764 732 c-6 -4 -16 -17 -23 -30 -7 -12 -16 -20 -22 -17 -5 4 -9 2
-9 -4 0 -5 8 -9 18 -9 9 1 28 -2 42 -6 24 -7 24 -6 6 8 -17 14 -14 18 12 15 4
-1 6 -5 5 -10 -2 -5 2 -9 7 -9 15 0 12 26 -4 39 -10 8 -16 9 -21 1 -3 -5 -11
-10 -18 -10 -6 0 -2 6 8 14 17 12 22 12 41 -3 12 -9 20 -21 17 -27 -2 -6 3
-17 12 -24 9 -8 15 -8 15 -2 0 6 -5 14 -11 18 -8 4 -7 9 2 15 11 7 11 9 1 9
-8 0 -10 5 -6 13 4 6 4 9 -1 5 -4 -4 -17 -1 -29 7 -23 17 -27 18 -42 7z"/>
<path d="M5209 708 c-19 -27 -20 -30 -4 -18 10 8 16 10 12 3 -4 -7 4 -17 22
-26 28 -14 29 -13 28 4 -1 11 -4 19 -7 19 -3 0 -14 6 -25 13 -14 11 -15 16 -5
22 9 6 11 4 5 -5 -5 -8 -3 -11 4 -9 15 5 16 22 3 27 -6 2 -20 -12 -33 -30z"/>
<path d="M2900 720 c0 -5 9 -10 19 -10 10 0 22 -7 25 -16 3 -8 10 -12 16 -9 5
3 10 1 10 -4 0 -6 -6 -12 -12 -12 -36 -5 -55 -4 -70 3 -12 6 -20 2 -28 -11
-15 -29 -12 -38 5 -15 15 19 15 19 30 0 8 -11 15 -14 15 -8 0 7 5 12 10 12 6
0 9 -5 8 -11 -2 -6 3 -14 10 -16 7 -3 10 1 6 10 -7 18 14 33 28 19 6 -6 4 -14
-5 -24 -13 -13 -13 -16 3 -26 17 -10 18 -7 15 41 -3 68 -3 67 -18 61 -8 -3
-20 2 -27 11 -14 17 -40 20 -40 5z"/>
<path d="M2950 720 c0 -5 5 -10 10 -10 6 0 10 5 10 10 0 6 -4 10 -10 10 -5 0
-10 -4 -10 -10z"/>
<path d="M2980 724 c0 -5 7 -20 16 -32 12 -17 12 -22 2 -22 -8 0 -9 -3 -3 -8
6 -4 10 -14 10 -22 0 -8 -4 -18 -10 -22 -6 -5 -5 -8 4 -8 10 0 11 -3 2 -14
-13 -15 -4 -49 10 -40 5 3 7 10 3 15 -3 5 0 16 6 24 9 11 9 15 1 15 -6 0 -3 8
7 18 21 22 30 19 11 -4 -11 -13 -11 -15 2 -14 26 4 40 0 34 -10 -3 -5 -2 -10
3 -10 6 0 13 7 16 16 8 20 8 24 -1 23 -21 -3 -33 2 -27 12 4 8 8 8 13 0 4 -6
12 -2 20 11 12 19 11 20 -6 13 -38 -16 -89 -12 -77 6 3 5 -4 21 -15 35 -12 15
-21 23 -21 18z"/>
<path d="M5665 720 c4 -6 11 -8 16 -5 14 9 11 15 -7 15 -8 0 -12 -5 -9 -10z"/>
<path d="M5397 714 c-4 -4 0 -12 9 -18 8 -6 12 -18 9 -27 -4 -11 -21 -15 -72
-15 -45 1 -68 -3 -70 -11 -3 -7 0 -13 7 -13 6 0 8 5 4 12 -4 7 -3 8 5 4 6 -4
9 -12 6 -17 -4 -5 -3 -10 2 -10 4 -1 17 -3 28 -4 11 -2 26 -4 34 -6 7 -2 16 2
18 9 3 7 -1 10 -10 6 -8 -3 -18 -1 -22 5 -4 7 0 8 11 4 13 -5 15 -3 9 8 -8 12
-6 12 8 0 13 -10 17 -10 17 -1 0 7 9 2 20 -11 10 -13 19 -19 20 -13 0 5 -4 14
-10 20 -6 6 -5 15 1 24 9 13 10 12 5 -2 -3 -10 -1 -20 3 -23 12 -7 23 24 14
37 -4 7 -1 8 8 3 12 -8 12 -6 0 8 -8 10 -16 15 -19 12 -3 -2 -10 2 -16 11 -6
8 -15 12 -19 8z m-72 -74 c3 -5 1 -10 -4 -10 -6 0 -11 5 -11 10 0 6 2 10 4 10
3 0 8 -4 11 -10z"/>
<path d="M3181 684 c-6 -15 -9 -29 -6 -32 3 -3 5 1 5 8 0 7 3 10 6 7 4 -4 1
-13 -6 -22 -7 -8 -9 -15 -6 -15 15 0 46 21 46 31 0 6 -5 7 -12 3 -6 -4 -8 -3
-4 4 3 5 0 13 -6 15 -8 4 -7 6 4 6 9 1 19 -5 21 -11 4 -10 6 -10 6 0 1 6 6 12
13 12 9 0 9 -3 0 -12 -16 -16 -16 -33 1 -21 14 12 48 13 41 2 -2 -5 -12 -6
-22 -3 -13 4 -13 3 2 -7 16 -10 21 -9 31 4 7 9 15 14 18 10 4 -3 15 0 24 8 16
13 17 12 5 -3 -12 -15 -11 -17 7 -15 22 1 27 12 11 22 -6 4 -7 12 -3 18 4 7
-5 4 -19 -5 -20 -13 -28 -14 -31 -5 -4 9 -6 9 -6 -1 -1 -9 -9 -8 -33 5 -53 27
-73 27 -87 -3z"/>
<path d="M5550 695 c-16 -8 -29 -10 -36 -4 -20 16 -40 0 -64 -50 -23 -49 -21
-75 4 -65 15 6 16 35 1 46 -6 5 -5 8 3 8 7 0 11 4 7 9 -12 20 15 20 34 0 24
-26 46 -17 31 12 -6 11 -14 17 -18 15 -5 -3 -14 -1 -21 3 -9 6 -10 11 -2 15 6
4 11 3 11 -3 0 -5 9 -8 20 -6 13 2 18 0 14 -7 -4 -7 1 -8 16 -3 12 4 29 8 36
9 7 1 17 6 21 11 4 4 3 5 -4 1 -6 -3 -15 0 -20 8 -7 12 -12 12 -33 1z"/>
<path d="M5034 692 c3 -6 2 -13 -4 -17 -20 -13 -9 -23 23 -21 34 3 37 0 38
-47 0 -15 3 -16 15 -7 11 10 17 10 28 0 12 -9 15 -8 15 7 1 47 4 50 38 47 22
-1 33 2 30 10 -2 6 -11 10 -21 8 -9 -2 -16 2 -16 8 0 7 -6 5 -15 -3 -18 -19
-83 -15 -96 4 -6 10 -9 11 -9 2 0 -7 -5 -13 -11 -13 -5 0 -8 4 -4 9 3 5 0 13
-6 17 -7 4 -9 3 -5 -4z m100 -40 c2 -4 0 -14 -5 -22 -8 -13 -10 -13 -18 0 -10
15 -6 30 9 30 5 0 11 -4 14 -8z"/>
<path d="M2686 674 c-9 -22 -8 -24 8 -18 8 3 17 0 21 -5 7 -13 25 -5 25 10 0
6 -5 7 -12 3 -6 -4 -17 1 -23 10 -12 15 -13 15 -19 0z"/>
<path d="M3070 680 c0 -5 5 -10 10 -10 6 0 10 5 10 10 0 6 -4 10 -10 10 -5 0
-10 -4 -10 -10z"/>
<path d="M3105 680 c3 -5 11 -10 16 -10 6 0 7 5 4 10 -3 6 -11 10 -16 10 -6 0
-7 -4 -4 -10z"/>
<path d="M4790 682 c0 -5 7 -12 15 -16 18 -6 45 2 45 15 0 12 -17 11 -25 -1
-5 -8 -11 -7 -21 1 -8 7 -14 7 -14 1z"/>
<path d="M2651 657 c-14 -18 -2 -28 27 -22 16 3 19 0 15 -13 -6 -15 -5 -16 13
-2 18 14 18 14 5 -3 -17 -22 -9 -33 9 -12 10 12 10 18 0 30 -7 9 -19 14 -26
11 -8 -3 -17 2 -22 10 -7 13 -10 13 -21 1z"/>
<path d="M2810 664 c0 -15 27 -50 34 -43 4 3 -2 17 -13 30 -11 13 -20 19 -21
13z"/>
<path d="M3375 649 c-4 -10 -11 -19 -16 -19 -6 0 -7 5 -3 12 4 7 3 8 -4 4 -14
-8 -4 -36 11 -33 7 1 11 -6 11 -15 -1 -10 5 -16 17 -15 11 1 19 4 19 8 0 4 3
16 6 26 5 16 4 16 -10 -1 -9 -11 -16 -16 -17 -10 0 5 -2 17 -4 27 -3 14 0 16
10 7 10 -8 14 -7 18 2 4 10 6 10 6 1 1 -7 6 -13 12 -13 18 0 -8 27 -31 33 -13
3 -21 -1 -25 -14z"/>
<path d="M2741 647 c-6 -8 -8 -17 -4 -20 3 -4 -2 -16 -12 -27 -10 -11 -14 -20
-9 -20 11 -1 -28 -24 -40 -25 -5 0 -11 -6 -14 -13 -2 -7 2 -10 12 -6 9 3 16 1
16 -6 0 -6 -4 -8 -10 -5 -5 3 -10 2 -10 -3 0 -8 22 -22 35 -22 2 0 2 11 0 25
-1 17 4 29 17 36 11 6 17 17 14 24 -4 11 0 12 20 5 35 -14 42 -12 20 5 -19 14
-12 21 17 16 9 -1 9 13 0 22 -3 4 -12 2 -20 -5 -10 -8 -17 -8 -26 1 -9 10 -8
11 7 5 15 -6 17 -4 11 6 -6 9 -4 11 5 5 9 -5 11 -4 6 3 -9 16 -21 15 -35 -1z"/>
<path d="M2790 655 c0 -6 5 -16 11 -22 14 -14 2 -36 -14 -26 -9 5 -9 3 0 -8
10 -12 9 -20 -3 -37 -19 -28 -7 -28 26 -1 14 12 18 19 9 16 -9 -3 -16 0 -16 6
0 7 12 13 25 14 15 0 20 -2 13 -7 -9 -5 -8 -9 4 -14 10 -3 15 -12 11 -21 -3
-8 -1 -15 4 -15 13 0 40 29 40 43 0 7 -7 3 -15 -7 -8 -11 -15 -16 -16 -10 0 5
-2 16 -4 25 -3 18 26 22 37 5 5 -8 8 -7 8 2 0 6 5 12 12 12 9 0 9 -3 0 -12
-17 -17 -15 -33 2 -19 20 17 58 -3 49 -25 -3 -8 -12 -13 -19 -10 -8 3 -14 1
-14 -4 0 -5 -6 -7 -13 -4 -8 3 -20 -2 -27 -11 -8 -9 -8 -15 -2 -15 6 0 14 5
18 11 4 8 9 7 15 -2 6 -9 9 -10 9 -2 0 12 17 12 37 0 10 -6 12 29 4 65 -3 13
-67 45 -89 43 -17 -1 -19 1 -11 12 8 9 8 13 1 13 -6 0 -14 -9 -17 -20 -9 -28
-30 -25 -54 8 -11 15 -21 22 -21 17z"/>
<path d="M3107 653 c-3 -4 -4 -20 -2 -35 4 -32 -23 -47 -41 -24 -9 13 -14 13
-29 2 -10 -7 -15 -18 -11 -24 3 -6 -4 -18 -16 -26 -14 -10 -17 -16 -8 -16 11
0 11 -3 2 -12 -18 -18 -15 -33 3 -18 9 7 14 18 11 25 -2 6 5 17 15 23 10 7 19
17 19 23 0 5 -4 7 -10 4 -5 -3 -10 -1 -10 4 0 14 6 14 31 0 11 -5 17 -15 13
-21 -4 -6 -1 -9 7 -6 8 3 13 11 11 17 -1 8 4 7 18 -1 11 -7 16 -14 10 -16 -15
-5 -12 -19 5 -19 21 0 27 25 8 36 -9 5 -18 16 -19 25 -2 13 1 15 11 6 10 -8
12 -4 11 21 -1 31 -19 49 -29 32z"/>
<path d="M3149 648 c-1 -7 -2 -28 -4 -46 -1 -18 1 -35 6 -38 5 -3 2 -18 -6
-34 -13 -25 -13 -29 1 -34 10 -4 18 3 24 20 12 32 12 37 1 29 -6 -3 -8 4 -6
15 2 11 -1 20 -6 20 -6 0 -7 5 -3 11 4 8 9 7 15 -2 4 -7 6 -16 3 -21 -6 -9 31
-29 40 -21 12 12 6 22 -11 17 -14 -4 -14 -2 2 8 11 7 20 20 20 28 0 8 8 14 18
14 9 -1 17 3 17 10 0 6 4 6 9 -3 6 -9 11 -10 15 -2 6 10 -6 15 -26 12 -5 0 -8
5 -8 12 0 8 -4 7 -10 -3 -7 -10 -10 -11 -10 -2 0 9 -6 8 -25 -4 -23 -15 -51
-11 -40 6 3 5 1 11 -5 15 -5 3 -10 0 -11 -7z m16 -28 c3 -5 1 -10 -4 -10 -6 0
-11 5 -11 10 0 6 2 10 4 10 3 0 8 -4 11 -10z m46 -9 c-6 -10 -7 -21 -4 -25 3
-3 2 -6 -4 -6 -19 0 -23 29 -5 39 23 14 24 14 13 -8z"/>
<path d="M4784 649 c-3 -5 -10 -7 -15 -4 -5 4 -9 4 -9 1 0 -3 9 -10 20 -16 11
-6 19 -7 18 -1 -2 5 2 9 7 9 6 1 8 -7 6 -16 -3 -16 -2 -16 15 -1 11 9 29 15
42 13 16 -3 21 0 16 8 -4 7 -3 8 5 4 16 -10 2 -29 -16 -22 -9 4 -13 1 -10 -6
2 -7 11 -11 18 -9 8 2 23 4 34 6 11 1 24 3 28 4 5 0 5 5 2 11 -3 6 1 7 9 4 9
-3 16 -2 16 4 0 11 -25 10 -36 -1 -12 -12 -26 -8 -18 6 4 6 4 9 -1 5 -4 -4
-14 -3 -22 3 -9 8 -17 8 -26 0 -8 -6 -17 -8 -20 -4 -11 11 -56 12 -63 2z"/>
<path d="M4984 645 c-8 -20 -74 -58 -74 -42 0 8 -3 8 -8 2 -11 -16 -32 -12
-46 8 -12 15 -15 16 -26 2 -7 -9 -10 -18 -7 -22 4 -3 -1 -11 -10 -18 -13 -10
-14 -15 -4 -31 10 -15 11 -15 7 -2 -3 11 3 23 17 33 12 8 16 15 9 15 -7 0 -10
5 -6 11 10 17 23 -9 17 -35 -4 -20 -4 -20 11 -2 8 10 19 15 25 11 6 -3 11 -2
11 4 0 6 6 8 13 5 8 -3 20 2 27 11 14 17 30 20 30 5 0 -5 -5 -9 -11 -7 -6 1
-13 -3 -16 -9 -5 -14 29 -13 39 1 4 6 5 17 3 26 -3 9 2 22 10 29 13 11 16 11
13 0 -2 -7 3 -15 10 -17 11 -4 12 -1 3 16 -14 24 -29 27 -37 6z"/>
<path d="M5219 639 c-9 -17 -8 -20 3 -16 7 2 12 10 10 17 -3 11 0 11 12 1 8
-7 13 -24 11 -39 -2 -15 -4 -33 -4 -39 -1 -18 -18 -16 -18 2 0 8 5 15 11 15 6
0 5 4 -3 9 -9 6 -10 11 -2 15 6 4 11 12 11 18 0 6 -6 6 -15 -2 -9 -7 -14 -19
-11 -27 3 -7 1 -13 -5 -13 -6 0 -7 -5 -3 -12 4 -6 -1 -17 -11 -25 -17 -12 -15
-13 16 -9 18 2 37 4 40 5 4 0 6 9 5 19 0 11 6 16 17 16 10 -1 16 3 14 10 -3 6
-10 10 -16 9 -6 -2 -11 2 -11 7 0 15 16 12 30 -5 7 -9 19 -14 27 -11 7 3 13 1
13 -5 0 -6 5 -7 12 -3 6 4 18 -2 26 -12 14 -18 14 -18 9 2 -6 26 7 52 17 35 4
-6 2 -11 -5 -11 -6 0 0 -9 15 -21 15 -12 31 -17 38 -13 8 5 7 0 -2 -11 -14
-17 -14 -18 7 -7 12 7 25 16 28 22 3 5 11 7 18 5 18 -7 61 30 53 44 -4 7 -16
9 -27 6 -13 -5 -26 1 -39 17 -13 14 -19 17 -18 8 3 -16 39 -46 51 -42 4 1 7
-3 7 -9 0 -6 -7 -8 -16 -5 -8 3 -27 0 -42 -8 -22 -11 -31 -12 -45 -2 -9 7 -14
16 -10 19 3 4 0 13 -7 22 -11 14 -14 13 -26 -2 -14 -20 -35 -24 -46 -8 -5 6
-8 6 -8 -2 0 -16 -66 22 -74 42 -8 21 -23 18 -37 -6z"/>
<path d="M2585 640 c-8 -12 30 -31 48 -24 18 7 33 -14 19 -28 -6 -6 -12 -6
-17 3 -5 8 -4 10 3 5 7 -4 12 -2 12 4 0 7 -6 10 -12 8 -7 -3 -13 -12 -13 -21
0 -9 -3 -17 -7 -17 -5 0 -17 -9 -28 -20 -11 -11 -24 -20 -30 -20 -5 0 -19 9
-30 20 -11 11 -20 17 -20 13 0 -3 -10 2 -22 13 -12 10 -18 13 -14 7 4 -7 3
-13 -2 -13 -6 0 -10 -10 -9 -22 0 -13 -3 -31 -7 -40 -7 -15 -5 -16 17 -5 14 6
23 15 20 19 -2 5 -10 5 -16 2 -7 -4 -5 1 4 11 14 14 21 15 38 6 22 -12 29 -31
10 -31 -5 0 -7 5 -4 10 3 6 2 10 -3 10 -8 0 -22 -22 -22 -34 0 -1 27 -2 60 -2
48 0 60 3 55 14 -3 7 -5 16 -5 18 0 2 -5 4 -11 4 -5 0 -7 -4 -4 -10 3 -5 1
-10 -4 -10 -19 0 -12 19 10 31 17 9 24 8 38 -6 9 -10 11 -15 4 -11 -6 3 -14 3
-16 -2 -3 -4 6 -12 19 -19 27 -12 29 -10 14 18 -6 11 -7 25 -3 32 4 6 8 18 9
25 4 22 11 24 18 7 4 -11 2 -14 -6 -9 -7 5 -8 3 -3 -5 10 -18 27 2 19 22 -3 9
-10 17 -16 17 -5 0 -6 5 -2 12 4 7 3 8 -5 4 -6 -4 -19 -2 -27 5 -20 17 -51 21
-59 9z m65 -80 c0 -5 -2 -10 -4 -10 -3 0 -8 5 -11 10 -3 6 -1 10 4 10 6 0 11
-4 11 -10z"/>
<path d="M2950 639 c0 -5 5 -7 10 -4 6 3 10 8 10 11 0 2 -4 4 -10 4 -5 0 -10
-5 -10 -11z"/>
<path d="M3299 648 c-1 -2 -2 -18 -4 -36 -2 -25 1 -32 12 -28 8 4 17 6 19 6 2
0 4 5 4 11 0 5 -4 7 -10 4 -5 -3 -10 -1 -10 4 0 18 19 12 30 -8 5 -11 7 -28 3
-38 -5 -15 -3 -16 7 -6 16 15 25 57 10 48 -5 -3 -15 5 -22 19 -9 21 -34 35
-39 24z"/>
<path d="M5030 639 c0 -4 9 -10 19 -14 11 -3 18 -12 15 -19 -3 -7 2 -19 11
-26 9 -8 15 -8 15 -2 0 6 -5 14 -11 18 -8 4 -7 9 2 15 10 6 11 9 2 9 -7 0 -12
5 -10 11 1 6 -8 12 -20 14 -13 1 -23 -2 -23 -6z"/>
<path d="M5169 640 c-1 -3 -1 -8 0 -12 0 -5 -5 -8 -11 -8 -10 0 -9 -3 1 -9 9
-6 10 -11 2 -15 -6 -4 -11 -12 -11 -18 0 -6 6 -6 15 2 9 7 14 19 11 26 -3 7 4
16 15 19 10 4 19 10 19 14 0 8 -39 10 -41 1z"/>
<path d="M4990 622 c0 -7 4 -12 10 -12 5 0 0 -16 -11 -35 -12 -19 -17 -36 -12
-36 72 -10 77 -9 58 4 -11 9 -15 19 -10 27 5 8 3 11 -6 8 -8 -3 -13 -11 -11
-17 1 -6 -2 -11 -8 -11 -15 0 -12 11 7 32 16 17 16 20 0 35 -11 11 -17 13 -17
5z"/>
<path d="M3425 610 c-4 -6 -3 -16 3 -22 6 -6 12 -6 17 2 4 6 3 16 -3 22 -6 6
-12 6 -17 -2z"/>
<path d="M4711 594 c-10 -13 -24 -24 -31 -24 -13 0 -147 -88 -156 -102 -3 -4
-14 -3 -26 3 -13 7 -18 7 -14 1 3 -6 1 -14 -5 -17 -5 -4 -8 -13 -5 -20 6 -18
-40 -50 -47 -32 -4 9 -6 9 -6 0 -1 -19 18 -26 35 -12 12 10 13 9 8 -6 -5 -13
-4 -16 5 -11 7 5 10 15 7 23 -3 8 -2 11 4 8 5 -3 7 3 5 14 -3 15 0 18 13 14
15 -6 15 -5 2 13 -12 16 -12 17 0 6 12 -10 18 -9 32 10 15 19 17 20 11 4 -6
-18 -3 -18 28 4 19 14 36 23 39 22 2 -2 6 1 8 7 2 7 -3 8 -14 4 -16 -6 -17 -5
-4 9 11 11 17 12 22 4 7 -10 12 -2 10 16 -1 3 5 9 14 12 11 4 12 2 5 -13 -6
-10 -7 -21 -4 -25 12 -11 21 -6 19 12 0 11 6 16 17 16 11 -1 16 4 15 14 -2 9
3 17 10 18 25 3 27 5 12 14 -13 8 -12 10 3 10 10 0 15 5 12 10 -3 6 -1 10 5
10 7 0 9 -8 5 -19 -5 -15 0 -18 27 -17 22 1 34 7 36 19 2 9 0 17 -5 18 -60 8
-74 5 -92 -17z m69 6 c0 -5 -5 -10 -11 -10 -5 0 -7 5 -4 10 3 6 8 10 11 10 2
0 4 -4 4 -10z"/>
<path d="M5030 599 c0 -11 4 -18 9 -15 10 6 25 -24 16 -32 -3 -3 -5 0 -5 6 0
7 -4 12 -10 12 -16 0 -11 -17 7 -24 26 -10 39 11 20 32 -9 10 -17 24 -17 30 0
7 -4 12 -10 12 -5 0 -10 -9 -10 -21z"/>
<path d="M5190 608 c0 -6 -8 -20 -17 -30 -19 -21 -6 -42 20 -32 18 7 23 24 7
24 -5 0 -10 -5 -10 -12 0 -6 -2 -9 -5 -6 -9 8 6 38 16 32 5 -3 9 4 9 15 0 12
-4 21 -10 21 -5 0 -10 -5 -10 -12z"/>
<path d="M3230 600 c0 -5 5 -10 10 -10 6 0 10 5 10 10 0 6 -4 10 -10 10 -5 0
-10 -4 -10 -10z"/>
<path d="M3256 593 c-9 -22 -4 -24 17 -8 14 10 15 14 3 18 -8 3 -17 -1 -20
-10z"/>
<path d="M5470 600 c0 -5 5 -10 10 -10 6 0 10 5 10 10 0 6 -4 10 -10 10 -5 0
-10 -4 -10 -10z"/>
<path d="M3481 586 c-8 -9 -27 -13 -51 -11 -22 2 -47 -3 -59 -12 -27 -18 -27
-28 0 -30 18 -2 19 0 8 15 -11 14 -11 15 1 5 19 -18 35 -16 21 1 -10 12 -9 14
4 12 9 -1 21 -9 26 -17 8 -13 13 -5 10 16 -1 6 5 2 15 -7 14 -14 15 -20 4 -32
-7 -9 -8 -16 -2 -16 5 0 15 7 22 15 10 12 10 18 0 30 -9 10 -9 15 -1 15 6 0
11 -6 11 -12 0 -9 3 -8 10 2 8 13 11 13 22 1 11 -11 11 -13 -1 -6 -10 6 -12 4
-6 -4 5 -9 11 -9 17 -3 12 12 4 28 -22 42 -13 7 -21 6 -29 -4z"/>
<path d="M5095 570 c-18 -35 -71 -67 -78 -47 -4 9 -6 9 -6 -1 -1 -9 -7 -8 -25
4 -15 9 -22 21 -19 30 3 8 1 14 -5 14 -5 0 -13 -7 -16 -16 -9 -22 -8 -26 6
-18 7 5 8 3 3 -6 -5 -8 -4 -11 2 -7 6 4 16 0 23 -9 7 -8 19 -13 27 -10 7 3 13
2 13 -2 0 -4 11 -8 25 -8 23 -2 24 0 13 15 -12 14 -11 14 4 3 9 -8 22 -11 28
-7 9 6 14 -7 11 -27 -2 -16 18 -7 32 12 8 11 17 17 20 14 4 -4 15 -1 24 7 16
13 17 12 5 -2 -11 -15 -10 -17 13 -15 14 0 25 4 25 8 0 4 6 5 13 3 15 -5 61
31 53 43 -3 5 1 9 8 9 8 0 12 -6 9 -14 -4 -9 0 -11 11 -7 9 3 16 1 16 -6 0 -6
-4 -8 -10 -5 -17 11 -11 -7 8 -21 22 -17 37 -18 26 -1 -11 15 -12 47 -1 47 4
0 9 0 12 0 3 0 1 -9 -5 -19 -13 -24 4 -32 43 -18 29 10 35 28 13 46 -11 9 -15
8 -20 -5 -8 -21 -8 -24 5 -24 5 0 7 5 3 12 -4 7 -3 8 5 4 15 -10 3 -29 -14
-22 -8 3 -16 2 -18 -2 -2 -4 -2 -1 -1 6 7 29 -8 39 -57 39 -37 0 -49 -3 -45
-13 7 -17 -41 -48 -47 -31 -4 9 -6 9 -6 -1 -2 -21 -59 15 -76 48 -9 17 -20 30
-25 30 -5 0 -16 -13 -25 -30z m43 -8 c2 -7 -6 -12 -17 -12 -21 0 -27 11 -14
24 9 9 26 2 31 -12z m28 -35 c3 -3 1 -8 -5 -12 -6 -3 -11 -1 -11 6 0 7 -7 4
-15 -7 -15 -19 -15 -19 -30 0 -8 11 -15 14 -15 7 0 -7 -5 -9 -11 -5 -18 11 5
20 46 18 20 -1 39 -4 41 -7z"/>
<path d="M3330 579 c0 -5 -4 -7 -10 -4 -13 8 -13 -8 1 -22 7 -7 2 -10 -17 -7
-33 3 -49 -5 -49 -26 0 -8 -8 -14 -18 -13 -12 1 -17 -4 -13 -14 3 -8 6 -19 6
-24 0 -5 5 -9 11 -9 6 0 9 7 5 15 -5 15 5 19 34 15 12 -1 13 1 3 11 -16 16
-17 29 -3 29 6 0 9 -5 8 -11 -2 -6 3 -14 10 -16 8 -3 10 1 6 11 -3 9 -1 16 6
16 6 0 8 -4 5 -10 -3 -5 -1 -10 4 -10 6 0 11 5 11 11 0 8 5 8 15 -1 20 -17 9
-32 -18 -25 -22 6 -22 6 -2 -10 19 -15 21 -14 37 6 17 20 16 45 -2 34 -13 -8
-31 30 -24 49 3 9 3 16 0 16 -3 0 -6 -5 -6 -11z"/>
<path d="M2735 562 c-19 -16 -19 -18 -3 -34 12 -12 18 -13 22 -5 3 7 4 3 1 -9
-4 -14 0 -21 10 -21 18 0 18 -1 5 31 -7 19 -14 24 -27 19 -10 -3 -15 -3 -11 1
3 4 12 8 20 9 7 2 14 7 16 12 6 16 -12 15 -33 -3z"/>
<path d="M2922 568 c-7 -7 -12 -9 -12 -5 0 3 -12 -5 -27 -19 l-28 -25 25 -20
25 -19 -25 -20 c-24 -20 -25 -21 -6 -35 26 -20 31 -13 35 53 1 17 18 15 18 -3
0 -8 -5 -15 -11 -15 -6 0 -5 -4 3 -9 9 -6 10 -11 2 -15 -6 -4 -11 -12 -11 -18
0 -6 6 -6 15 2 9 7 14 19 11 27 -3 7 -1 13 4 13 5 0 7 6 4 14 -7 19 15 31 29
17 9 -9 8 -11 -5 -6 -10 4 -18 3 -18 -3 0 -6 9 -13 19 -17 11 -3 18 -12 15
-19 -3 -7 2 -19 11 -26 18 -15 21 0 3 18 -9 9 -9 12 2 12 9 0 8 5 -6 16 -10 8
-13 12 -5 9 9 -5 8 1 -4 19 -9 14 -21 23 -26 20 -23 -14 -68 -12 -81 3 -9 12
-10 15 0 9 7 -4 15 -1 18 8 3 9 15 16 26 16 10 0 16 5 13 10 -3 6 -1 10 4 10
6 0 11 -5 11 -11 0 -5 5 -7 11 -3 8 4 7 9 -2 15 -18 12 -23 11 -37 -3z m-32
-128 c0 -5 -2 -10 -4 -10 -3 0 -8 5 -11 10 -3 6 -1 10 4 10 6 0 11 -4 11 -10z"/>
<path d="M3230 571 c0 -5 -3 -17 -7 -27 -6 -16 -3 -16 30 3 25 15 37 18 41 10
3 -9 5 -9 5 0 2 22 -20 25 -41 6 -12 -10 -18 -13 -15 -6 4 6 3 14 -3 18 -5 3
-10 2 -10 -4z"/>
<path d="M2356 555 c-3 -8 -12 -12 -20 -9 -8 3 -17 0 -22 -7 -4 -8 -3 -10 5
-5 6 4 14 0 17 -9 6 -13 9 -14 16 -3 7 9 8 7 4 -8 -4 -14 -1 -21 9 -22 8 -1
22 -3 30 -4 8 -1 12 -5 9 -9 -2 -5 -11 -6 -20 -2 -8 3 -14 2 -13 -3 4 -21 -2
-35 -11 -29 -5 3 -10 1 -10 -4 0 -6 2 -11 4 -11 2 0 12 -3 22 -7 11 -4 15 -3
10 5 -3 6 4 20 16 31 17 16 19 24 10 33 -7 7 -12 8 -12 4 0 -5 -7 -3 -15 4
-18 15 -20 42 -2 38 7 -2 14 2 15 7 1 6 -1 10 -5 10 -5 0 -13 4 -19 8 -7 4
-14 0 -18 -8z"/>
<path d="M2806 547 c-17 -14 -26 -28 -22 -36 8 -12 26 -6 26 10 0 6 -5 7 -12
3 -7 -5 -8 -3 -3 6 6 10 11 9 21 -4 9 -13 13 -14 18 -4 3 7 4 4 1 -8 -4 -14 0
-21 10 -21 11 0 13 6 8 21 -3 12 -6 29 -5 39 1 23 -7 22 -42 -6z"/>
<path d="M3047 552 c-10 -10 -17 -23 -17 -29 0 -6 -7 -16 -15 -23 -8 -7 -12
-17 -9 -22 12 -20 12 -64 -1 -84 -13 -20 -12 -21 17 -22 28 -1 29 0 12 14 -18
14 -18 14 0 29 18 14 15 20 -9 15 -5 -1 -6 2 -2 7 5 4 14 8 20 8 5 0 12 6 15
13 2 7 -2 10 -11 6 -19 -7 -30 22 -13 38 7 7 13 16 14 21 1 4 4 7 7 7 3 0 10
0 17 0 6 0 3 -7 -8 -16 -18 -14 -18 -15 6 -8 14 4 33 7 43 6 9 0 17 3 17 9 0
5 -6 8 -12 7 -7 -2 -12 5 -12 15 2 14 -1 15 -12 6 -15 -12 -38 -3 -29 12 10
15 -1 10 -18 -9z"/>
<path d="M4724 558 c-3 -5 -9 -6 -13 -4 -3 3 -7 -3 -7 -12 -1 -9 -4 -25 -8
-34 -7 -15 -5 -16 17 -5 14 6 23 15 20 19 -2 5 -10 5 -16 1 -7 -4 -6 1 2 10 8
11 21 15 32 12 14 -5 17 -2 14 8 -6 15 -33 19 -41 5z"/>
<path d="M4776 561 c-4 -6 -1 -11 6 -11 9 0 9 -3 -2 -10 -8 -5 -24 -7 -35 -4
-14 4 -16 2 -7 -4 7 -5 10 -15 7 -24 -5 -12 1 -15 27 -14 22 1 34 7 36 19 2 9
-2 17 -8 17 -6 0 -9 4 -6 8 2 4 1 14 -3 21 -6 9 -11 10 -15 2z m4 -41 c0 -5
-5 -10 -11 -10 -5 0 -7 5 -4 10 3 6 8 10 11 10 2 0 4 -4 4 -10z"/>
<path d="M4828 564 c-2 -5 -4 -21 -3 -36 0 -15 -5 -30 -12 -32 -7 -3 -13 -11
-13 -17 0 -8 5 -8 16 1 12 11 15 11 12 0 -2 -7 3 -15 10 -17 11 -4 12 -1 3 15
-8 15 -8 22 2 25 9 4 8 6 -2 6 -11 1 -11 4 -1 15 8 10 8 21 2 32 -5 9 -11 13
-14 8z"/>
<path d="M4866 548 c-9 -14 -14 -38 -11 -60 3 -39 -10 -49 -32 -27 -9 9 -12 7
-10 -10 1 -16 6 -20 22 -15 12 3 15 2 8 -3 -9 -6 -7 -12 8 -21 18 -11 19 -10
15 13 -6 31 13 44 30 21 9 -13 13 -14 18 -4 3 7 4 4 1 -7 -4 -15 0 -21 14 -22
17 -1 18 1 6 25 -13 23 -27 31 -62 34 -14 2 -5 28 10 28 6 0 2 7 -9 16 -18 14
-18 15 4 4 18 -9 27 -8 38 1 10 8 14 8 14 0 0 -6 -5 -11 -12 -11 -6 0 -8 -3
-4 -7 4 -5 20 -8 34 -8 26 -1 28 -4 23 -46 0 -6 -8 -8 -17 -5 -9 4 -14 1 -12
-6 2 -6 13 -13 25 -14 15 -3 20 2 19 14 -1 11 6 16 17 15 11 0 16 4 14 11 -3
7 4 12 17 13 11 0 15 -1 9 -4 -7 -3 -13 -9 -13 -14 0 -6 5 -7 10 -4 9 6 15 -8
11 -29 -1 -5 5 -6 14 -2 9 3 19 6 21 6 2 0 4 5 4 11 0 5 -4 8 -9 5 -5 -3 -11
1 -15 9 -3 8 0 17 6 21 6 4 8 3 5 -3 -4 -6 0 -13 7 -16 10 -4 14 0 13 12 -1
14 -11 18 -55 18 -40 0 -57 5 -64 17 -5 9 -14 13 -20 10 -14 -9 -29 17 -22 39
4 12 0 17 -16 17 -12 0 -18 -4 -15 -10 4 -6 12 -7 18 -4 7 4 5 -1 -4 -11 -14
-14 -21 -15 -35 -6 -17 11 -16 11 6 6 14 -4 21 -3 15 2 -5 5 -13 12 -17 16 -3
5 -13 -2 -22 -15z"/>
<path d="M3450 541 c0 -8 -7 -10 -19 -6 -20 6 -25 2 -62 -48 -21 -27 -22 -27
-47 -11 -19 12 -27 14 -30 5 -3 -9 -8 -9 -20 1 -13 11 -14 11 -10 -2 3 -8 13
-14 22 -14 9 1 16 -2 16 -6 0 -4 8 -7 18 -6 11 0 16 -6 16 -17 -2 -19 20 -18
22 1 1 7 2 18 3 25 1 8 4 8 10 -3 6 -8 7 -18 4 -23 -3 -5 5 -6 18 -2 14 4 19
3 12 -2 -9 -6 -7 -12 7 -21 16 -10 18 -9 17 9 -1 12 -11 25 -23 29 -12 5 -25
15 -29 22 -6 10 -5 11 6 1 18 -17 30 -16 23 2 -4 8 -11 12 -17 8 -6 -3 -7 -1
-3 5 5 8 13 9 25 2 12 -6 22 -5 31 3 10 9 11 9 6 0 -8 -15 10 -18 19 -3 10 16
26 12 23 -6 -2 -10 2 -19 8 -21 8 -3 11 8 9 31 -1 28 1 34 11 25 7 -5 15 -6
17 -1 3 4 -3 13 -14 20 -10 7 -19 8 -19 3 0 -20 -31 -39 -58 -36 -15 2 -31 4
-35 4 -5 1 -5 6 -1 12 5 8 8 8 13 0 5 -8 13 -7 27 3 10 8 16 18 11 22 -4 4 -7
2 -7 -5z"/>
<path d="M3185 530 c-9 -15 4 -30 20 -23 8 3 15 9 15 13 0 12 -29 20 -35 10z"/>
<path d="M3622 533 c-6 -2 -10 -9 -7 -13 8 -12 -33 -33 -47 -24 -6 4 -21 8
-33 9 -17 2 -21 -2 -20 -19 1 -11 -2 -27 -8 -34 -7 -9 -6 -16 3 -25 10 -10 12
-8 7 6 -5 12 -3 16 5 11 6 -4 8 -3 4 4 -3 6 -1 14 5 17 5 4 8 14 5 22 -3 8 -1
11 4 8 6 -3 10 -13 10 -21 0 -8 5 -12 10 -9 6 4 7 12 3 18 -4 7 1 6 10 -2 12
-9 15 -21 11 -35 -6 -20 -5 -20 12 -4 15 15 15 19 3 34 -9 12 -10 15 -1 10 6
-4 12 -3 12 3 0 6 11 13 25 17 14 3 22 11 18 17 -3 6 -1 7 5 3 9 -5 9 -13 1
-28 -9 -16 -8 -19 2 -13 8 5 10 4 5 -3 -4 -7 -5 -12 -2 -12 3 0 10 9 16 19 16
32 -20 60 -58 44z"/>
<path d="M2281 517 c-15 -15 -14 -32 2 -20 18 15 49 13 37 -2 -10 -12 -4 -25
12 -25 5 0 6 5 2 12 -4 7 -3 8 4 4 9 -5 9 -13 2 -27 -6 -11 -16 -17 -22 -13
-6 4 -9 1 -6 -7 3 -8 11 -13 18 -11 10 2 11 0 2 -11 -7 -8 -9 -17 -5 -20 14
-15 21 -5 18 23 -3 19 1 33 9 36 7 3 13 11 13 19 0 8 -4 12 -9 9 -4 -3 -13 5
-19 18 -11 26 -40 33 -58 15z"/>
<path d="M2430 520 c0 -5 5 -10 10 -10 6 0 10 5 10 10 0 6 -4 10 -10 10 -5 0
-10 -4 -10 -10z"/>
<path d="M2716 521 c-4 -6 -2 -11 5 -11 7 0 5 -6 -6 -13 -18 -14 -14 -37 7
-37 7 0 6 6 -2 15 -9 10 -9 15 -1 15 11 0 13 -7 14 -48 0 -16 4 -21 14 -18 8
4 17 6 19 6 2 0 4 5 4 11 0 5 -4 7 -10 4 -5 -3 -10 -1 -10 5 0 7 7 10 15 6 17
-6 19 2 5 24 -9 13 -10 13 -10 0 -1 -8 -9 0 -19 19 -11 21 -21 30 -25 22z"/>
<path d="M3230 520 c0 -5 5 -10 10 -10 6 0 10 5 10 10 0 6 -4 10 -10 10 -5 0
-10 -4 -10 -10z"/>
<path d="M3550 520 c0 -5 5 -10 10 -10 6 0 10 5 10 10 0 6 -4 10 -10 10 -5 0
-10 -4 -10 -10z"/>
<path d="M4670 520 c0 -5 5 -10 10 -10 6 0 10 5 10 10 0 6 -4 10 -10 10 -5 0
-10 -4 -10 -10z"/>
<path d="M5271 511 c-12 -12 -36 -22 -54 -24 -24 -2 -32 -7 -32 -21 0 -11 -8
-20 -17 -22 -20 -2 -32 22 -16 32 6 4 8 3 5 -3 -4 -6 0 -13 8 -17 17 -6 19 2
5 24 -12 19 -37 5 -66 -38 -12 -17 -24 -28 -28 -25 -3 4 -6 1 -6 -5 0 -19 30
-14 31 6 0 15 1 14 8 -2 7 -19 8 -19 13 2 4 12 2 22 -4 22 -5 0 -6 5 -2 11 9
16 24 -10 16 -29 -4 -11 -2 -13 9 -6 8 5 17 9 21 9 4 0 16 8 28 17 11 10 20
13 20 8 0 -12 11 -13 30 0 8 5 11 12 7 17 -5 4 -12 1 -17 -7 -6 -9 -10 -10
-10 -3 0 20 18 24 40 11 18 -11 23 -10 33 3 7 9 18 14 25 12 6 -3 12 1 12 8 0
7 -3 9 -7 5 -4 -3 -12 3 -19 15 l-11 22 -22 -22z m15 -16 c-13 -10 -15 -15 -6
-15 7 0 11 -3 7 -6 -3 -3 -11 -3 -18 2 -9 5 -7 11 6 21 11 7 21 13 24 13 3 0
-3 -7 -13 -15z"/>
<path d="M2232 504 c-6 -10 -14 -18 -19 -16 -4 2 -9 -2 -11 -10 -2 -9 0 -8 7
2 6 8 11 10 11 5 0 -6 9 -11 20 -12 13 -1 18 2 14 9 -4 7 -2 8 4 4 6 -4 9 -13
5 -21 -4 -11 -1 -13 11 -9 9 3 14 10 11 14 -3 5 3 13 12 19 10 6 13 11 6 11
-6 0 -15 -5 -19 -11 -5 -8 -13 -4 -24 11 -17 22 -18 22 -28 4z"/>
<path d="M2799 497 c-8 -7 -15 -21 -16 -32 0 -11 -3 -29 -7 -40 -6 -16 -6 -17
3 -5 6 8 11 10 11 4 0 -5 -5 -15 -12 -22 -9 -9 -9 -12 -1 -12 13 0 26 18 29
38 1 6 -2 12 -7 12 -6 0 -7 5 -3 11 4 8 9 7 15 -2 4 -7 5 -17 2 -22 -3 -5 4
-6 15 -3 15 5 22 2 26 -12 4 -10 13 -19 21 -19 21 0 19 10 -6 25 -12 8 -18 19
-15 30 8 24 -9 50 -17 28 -4 -9 -2 -16 4 -16 6 0 7 -5 3 -11 -4 -8 -9 -7 -15
2 -4 7 -5 17 -3 21 3 4 1 14 -3 22 -6 11 -11 12 -24 3z m16 -17 c-3 -5 -12
-10 -18 -10 -7 0 -6 4 3 10 19 12 23 12 15 0z"/>
<path d="M3104 495 c3 -9 6 -20 6 -23 0 -4 5 0 11 8 8 12 9 10 4 -7 -5 -18 -3
-22 9 -17 9 3 13 11 9 17 -4 6 -1 7 7 2 7 -4 16 -2 21 6 7 12 9 12 9 0 0 -11
3 -11 18 0 14 11 15 11 5 -1 -18 -20 -16 -35 2 -20 9 7 14 18 12 23 -4 14 -45
19 -52 7 -4 -6 -18 -4 -37 6 -29 15 -30 15 -24 -1z"/>
<path d="M4622 489 c-7 -11 -17 -17 -22 -14 -14 9 -21 -12 -11 -37 9 -24 61
-39 61 -17 0 5 -4 8 -9 4 -6 -3 -14 3 -20 12 -7 13 -10 14 -11 4 0 -8 -2 -12
-5 -9 -3 3 -2 13 1 22 4 11 9 14 13 7 5 -8 13 -7 27 3 17 13 17 16 4 30 -14
14 -17 14 -28 -5z m28 -3 c0 -2 -7 -7 -16 -10 -8 -3 -12 -2 -9 4 6 10 25 14
25 6z"/>
<path d="M2430 481 c0 -12 5 -21 10 -21 6 0 10 6 10 14 0 8 -4 18 -10 21 -5 3
-10 -3 -10 -14z"/>
<path d="M2464 489 c-10 -17 13 -36 27 -22 12 12 4 33 -11 33 -5 0 -12 -5 -16
-11z"/>
<path d="M2625 491 c-8 -13 2 -31 17 -31 6 0 5 7 -3 18 -13 16 -13 16 5 2 16
-13 19 -13 15 -1 -7 19 -25 25 -34 12z"/>
<path d="M2674 482 c-3 -12 -17 -25 -30 -28 -13 -3 -24 -11 -24 -16 0 -6 7 -8
15 -4 15 5 17 2 17 -34 0 -36 -2 -39 -17 -34 -8 4 -15 1 -15 -5 0 -6 4 -11 9
-11 5 0 16 -3 24 -6 10 -4 15 1 14 13 -1 11 4 18 14 17 11 -1 16 7 16 26 0 18
-5 26 -13 23 -19 -7 -28 17 -11 34 13 14 16 13 22 -6 3 -12 11 -19 16 -16 5 3
6 -1 3 -9 -4 -10 -1 -16 7 -16 10 0 10 -3 1 -12 -17 -17 -15 -33 2 -19 11 9
20 10 35 1 22 -11 28 -30 10 -30 -5 0 -7 5 -4 10 3 6 2 10 -3 10 -8 0 -22 -22
-22 -34 0 -2 10 -2 23 -2 12 1 28 -2 35 -7 13 -10 18 4 5 17 -14 14 -11 34 6
31 9 -2 20 -4 25 -4 6 -1 1 -8 -10 -16 -10 -8 -14 -15 -7 -15 13 0 43 27 43
39 0 4 -6 15 -13 25 -12 16 -14 16 -37 -4 -24 -21 -45 -22 -45 -2 0 5 -3 14
-7 18 -5 4 -8 2 -8 -6 0 -10 -3 -10 -15 0 -8 7 -13 16 -10 20 3 4 -2 14 -11
21 -9 7 -20 22 -25 34 -8 20 -8 20 -15 -3z m161 -82 c-3 -5 -1 -10 6 -10 7 0
10 -3 6 -6 -9 -9 -28 6 -22 17 4 5 8 9 11 9 3 0 2 -4 -1 -10z"/>
<path d="M3035 491 c-3 -5 -1 -12 5 -16 5 -3 10 1 10 9 0 18 -6 21 -15 7z"/>
<path d="M3065 490 c-3 -5 -3 -15 0 -20 4 -6 2 -16 -3 -23 -5 -7 -8 -22 -7
-34 1 -18 -1 -20 -12 -12 -8 7 -13 8 -13 1 0 -12 29 -24 41 -16 5 3 6 10 3 16
-4 6 0 14 7 19 10 6 11 9 2 9 -7 0 -13 5 -13 11 0 8 4 8 13 0 8 -6 23 -9 36
-6 13 2 19 0 15 -7 -4 -7 1 -8 17 -2 13 4 34 8 47 8 12 0 22 5 22 11 0 5 5 3
10 -5 9 -13 11 -13 20 0 5 9 10 10 10 3 0 -6 7 -10 15 -9 21 3 31 16 14 17
-57 6 -76 5 -86 -4 -9 -6 -15 -4 -19 7 -5 14 -9 14 -35 1 -28 -15 -29 -14 -44
15 -16 31 -29 38 -40 20z m39 -36 c3 -8 2 -12 -4 -9 -6 3 -10 10 -10 16 0 14
7 11 14 -7z"/>
<path d="M3621 487 c-6 -8 -8 -17 -4 -20 3 -4 -2 -16 -12 -27 -14 -16 -16 -23
-7 -32 17 -17 40 -18 46 -1 4 10 1 13 -13 8 -11 -3 -22 -1 -26 4 -4 7 1 8 12
5 14 -4 15 -3 4 4 -9 7 -10 12 -2 16 6 4 11 2 11 -3 0 -6 5 -11 11 -11 5 0 7
5 4 10 -3 6 -1 10 5 10 7 0 9 -7 6 -16 -4 -10 -1 -14 6 -12 7 3 13 10 13 16 0
5 3 13 7 17 9 9 5 -17 -6 -33 -5 -9 -3 -13 5 -11 29 3 41 -2 36 -15 -3 -8 0
-17 7 -19 8 -3 13 4 13 23 0 19 -5 27 -16 26 -9 0 -16 6 -16 14 0 10 8 14 25
12 19 -2 22 0 12 10 -6 6 -12 17 -12 23 0 5 5 2 11 -7 11 -21 30 -24 25 -5 -1
6 -1 9 1 4 3 -4 9 -5 14 -1 5 3 9 0 9 -6 0 -6 5 -8 10 -5 6 3 10 1 10 -5 0 -6
-8 -9 -18 -6 -16 5 -18 1 -17 -31 1 -21 3 -41 4 -44 2 -10 35 -5 43 6 12 16 9
30 -4 17 -15 -15 -28 -16 -28 -2 0 6 5 9 12 8 7 -2 13 9 13 27 2 38 -3 51 -18
53 -7 0 -23 3 -36 6 -25 6 -53 -5 -52 -20 1 -12 -79 -12 -86 0 -4 5 -1 6 4 3
6 -4 13 0 17 8 7 19 -8 20 -23 2z m184 -57 c3 -5 1 -10 -4 -10 -6 0 -11 5 -11
10 0 6 2 10 4 10 3 0 8 -4 11 -10z"/>
<path d="M4670 481 c0 -12 5 -21 10 -21 6 0 10 6 10 14 0 8 -4 18 -10 21 -5 3
-10 -3 -10 -14z"/>
<path d="M4704 489 c-10 -17 13 -36 27 -22 12 12 4 33 -11 33 -5 0 -12 -5 -16
-11z"/>
<path d="M4884 488 c-4 -7 -3 -8 4 -4 7 4 12 2 12 -3 0 -6 3 -10 8 -9 4 1 17
-3 30 -10 12 -7 22 -11 23 -10 8 31 6 38 -7 27 -11 -9 -14 -9 -14 0 0 7 -4 10
-9 6 -5 -3 -12 -1 -16 5 -8 13 -22 13 -31 -2z"/>
<path d="M2506 474 c-8 -20 -4 -25 11 -16 7 4 9 13 4 21 -6 10 -10 9 -15 -5z"/>
<path d="M2535 480 c-3 -5 -1 -10 4 -10 6 0 11 5 11 10 0 6 -2 10 -4 10 -3 0
-8 -4 -11 -10z"/>
<path d="M2570 480 c0 -5 5 -10 11 -10 5 0 7 5 4 10 -3 6 -8 10 -11 10 -2 0
-4 -4 -4 -10z"/>
<path d="M2596 474 c-4 -9 -12 -14 -21 -10 -17 6 -65 -13 -65 -26 0 -10 17
-11 23 0 2 4 2 2 1 -5 -3 -14 24 -25 39 -16 7 5 12 14 12 22 0 8 7 16 15 18
13 4 13 3 0 -6 -13 -10 -13 -12 0 -21 8 -5 10 -10 5 -10 -14 0 -14 -40 0 -40
5 0 3 -5 -5 -10 -13 -9 -13 -11 0 -20 11 -7 11 -10 2 -10 -7 0 -10 -5 -7 -10
14 -23 21 3 20 74 -1 77 -7 100 -19 70z m-26 -34 c0 -5 -4 -10 -10 -10 -5 0
-10 5 -10 10 0 6 5 10 10 10 6 0 10 -4 10 -10z"/>
<path d="M2860 480 c0 -5 7 -10 15 -10 8 0 15 5 15 10 0 6 -7 10 -15 10 -8 0
-15 -4 -15 -10z"/>
<path d="M3465 480 c-3 -6 -17 -8 -31 -6 -22 4 -23 3 -12 -17 29 -53 18 -72
-26 -46 -24 14 -36 17 -41 9 -4 -6 -14 -8 -24 -5 -42 18 -82 9 -50 -11 8 -4 7
-9 -2 -16 -11 -8 -11 -9 1 -5 8 2 14 13 13 23 -1 18 -1 18 13 0 8 -12 14 -15
14 -7 0 10 3 11 14 2 10 -8 16 -9 19 -1 3 6 4 5 3 -2 -2 -7 -11 -11 -21 -10
-16 3 -17 1 -6 -12 7 -8 9 -20 5 -27 -4 -7 -2 -10 7 -7 8 3 13 10 12 14 -1 5
7 21 18 34 11 14 18 18 17 10 -2 -9 4 -14 15 -14 9 1 17 -2 17 -7 0 -18 36 14
37 32 1 12 -3 17 -9 13 -7 -5 -8 -2 -3 6 4 7 2 16 -6 21 -11 7 -11 9 -1 9 7 0
15 -7 19 -16 5 -13 8 -13 15 -2 7 9 8 7 4 -7 -5 -16 -1 -21 13 -22 20 -2 20
-1 1 32 -10 18 -16 36 -13 39 4 3 4 6 0 6 -3 0 -9 -5 -12 -10z"/>
<path d="M4746 474 c-8 -20 -4 -25 11 -16 7 4 9 13 4 21 -6 10 -10 9 -15 -5z"/>
<path d="M4775 481 c-3 -6 0 -11 7 -12 7 0 3 -5 -9 -11 -13 -6 -23 -15 -23
-20 0 -10 17 -11 23 0 2 4 2 1 1 -5 -3 -12 9 -17 29 -14 4 1 3 -8 -3 -18 -11
-22 -45 -18 -36 4 3 8 -1 16 -8 18 -8 3 -13 -4 -13 -23 0 -19 5 -27 16 -26 10
1 15 -6 15 -17 -1 -10 3 -16 10 -14 6 3 10 9 9 13 -1 5 7 21 18 34 11 14 18
18 17 10 -2 -9 4 -14 15 -14 9 1 17 -1 17 -5 0 -4 9 -7 20 -7 15 0 19 5 15 21
-3 11 -2 14 1 8 3 -7 15 -13 25 -13 11 0 17 5 14 10 -4 6 -11 8 -16 5 -5 -4
-14 5 -21 19 -14 32 -28 34 -23 5 3 -12 2 -25 0 -30 -6 -9 -85 32 -85 44 0 5
5 5 11 1 7 -4 7 2 -1 17 -17 32 -17 32 -25 20z"/>
<path d="M2161 471 c-10 -6 -10 -10 -2 -16 9 -5 9 -10 1 -20 -12 -15 -44 -9
-34 6 3 5 1 9 -4 9 -6 0 -13 -7 -16 -16 -8 -22 -8 -22 12 -20 9 0 16 -5 15
-11 -4 -17 5 -16 22 1 8 7 11 17 7 20 -3 4 1 4 11 0 13 -5 16 -2 11 10 -3 9
-1 16 6 16 6 0 8 -4 5 -10 -3 -5 -2 -10 3 -10 11 0 25 30 17 38 -3 3 -5 2 -5
-2 0 -4 -8 -2 -18 3 -10 5 -24 6 -31 2z"/>
<path d="M2291 473 c3 -20 -2 -34 -11 -28 -5 3 -10 2 -10 -4 0 -5 10 -13 21
-16 15 -5 18 -10 9 -15 -6 -4 -12 -11 -13 -16 -1 -5 -7 -8 -14 -8 -6 1 -11 -7
-10 -17 1 -11 4 -19 8 -19 4 0 16 -3 26 -6 16 -5 16 -4 -1 10 -11 9 -16 16
-10 17 5 0 16 2 25 4 17 3 20 -17 6 -31 -13 -13 -8 -27 6 -17 6 5 22 8 35 7
16 -1 22 3 18 13 -3 8 -6 17 -6 19 0 2 -5 4 -11 4 -5 0 -7 -4 -4 -10 3 -5 1
-10 -4 -10 -18 0 -12 19 10 30 15 9 24 8 35 -1 17 -14 19 2 2 19 -9 9 -9 12 1
12 8 0 11 6 7 16 -3 8 -2 12 4 9 6 -3 10 0 10 7 0 9 3 9 10 -2 9 -13 11 -13
20 0 7 11 10 11 10 2 0 -7 4 -11 9 -7 15 9 42 -25 36 -45 -4 -13 -1 -17 12
-16 12 0 17 -5 17 -17 -1 -10 3 -16 10 -14 6 3 10 10 9 16 -2 6 2 11 7 11 14
0 13 -13 -2 -28 -13 -13 1 -16 17 -4 14 10 15 42 1 44 -6 0 -15 2 -21 3 -5 2
-16 3 -22 4 -7 0 -13 6 -13 12 0 8 5 8 15 -1 10 -9 15 -9 15 -1 0 6 -4 11 -10
11 -5 0 -19 9 -31 21 -36 36 -113 33 -114 -6 0 -5 -9 -10 -20 -10 -11 0 -20
-7 -20 -15 0 -14 -6 -16 -36 -11 -6 0 -9 7 -6 15 3 7 1 18 -5 24 -13 13 0 35
15 25 7 -4 6 0 -2 10 -14 17 -32 23 -30 10z"/>
<path d="M2227 457 c-6 -16 14 -41 26 -32 4 3 4 2 1 -2 -3 -5 -11 -8 -16 -8
-6 0 -13 -6 -16 -13 -2 -8 3 -10 15 -6 13 4 14 3 5 -4 -19 -13 -19 -16 -3 -35
11 -14 11 -17 1 -17 -8 0 -10 -3 -6 -7 12 -13 21 0 22 32 0 17 4 37 8 46 4 9
-1 25 -12 39 -16 19 -20 21 -25 7z"/>
<path d="M3570 459 c0 -6 -8 -8 -19 -4 -16 5 -19 1 -17 -20 2 -14 -1 -28 -7
-32 -6 -4 -7 -1 -2 8 7 11 6 12 -6 2 -9 -7 -25 -11 -36 -9 -20 4 -21 2 -14
-49 0 -6 10 -11 20 -12 13 -1 18 3 15 12 -3 7 0 16 5 20 6 3 8 11 5 17 -4 7
-2 8 4 4 7 -4 18 -4 25 1 22 13 35 11 32 -6 -2 -9 -4 -20 -4 -25 -1 -6 -8 -1
-17 10 -14 17 -15 17 -10 1 3 -10 6 -22 6 -26 0 -4 8 -7 19 -8 12 -1 18 5 17
15 0 9 5 16 12 15 6 -2 12 2 12 7 0 6 -4 10 -8 10 -13 0 -32 48 -26 65 4 8 3
15 0 15 -3 0 -6 -5 -6 -11z m-5 -29 c3 -5 1 -10 -4 -10 -6 0 -11 5 -11 10 0 6
2 10 4 10 3 0 8 -4 11 -10z m-72 -56 c-4 -12 -8 -13 -14 -3 -9 15 -2 32 11 24
5 -3 6 -13 3 -21z"/>
<path d="M1956 451 c-4 -6 -5 -11 -1 -11 3 0 -1 -13 -9 -29 -14 -26 -14 -30 0
-35 12 -5 15 -2 10 10 -4 10 1 25 11 36 12 13 13 22 6 29 -8 8 -13 8 -17 0z"/>
<path d="M2950 441 c0 -10 -7 -22 -16 -25 -8 -3 -12 -10 -9 -16 3 -5 1 -10 -4
-10 -6 0 -11 6 -11 13 0 6 -5 4 -11 -6 -6 -9 -14 -15 -20 -12 -8 6 -13 -8 -6
-19 4 -9 -68 -53 -78 -47 -5 3 -19 6 -30 6 -11 0 -26 4 -33 9 -9 5 -18 3 -25
-4 -9 -10 -9 -11 3 -8 8 3 23 -1 32 -10 14 -11 21 -12 32 -3 11 9 15 8 20 -4
3 -8 9 -15 13 -14 29 5 36 -2 17 -17 -17 -14 -17 -15 -1 -10 10 3 22 6 26 6 4
0 7 9 8 19 1 13 -3 18 -12 15 -17 -7 -29 12 -14 22 8 5 9 3 4 -6 -5 -8 -3 -11
6 -8 8 3 13 12 11 19 -3 11 -1 12 9 2 20 -19 33 -15 18 5 -13 15 -12 16 4 3
11 -9 17 -10 17 -2 0 6 -7 14 -16 18 -28 10 6 22 50 17 38 -5 39 -4 21 9 -17
13 -17 17 -5 32 12 15 14 15 22 1 5 -9 6 -21 3 -26 -3 -6 -2 -10 4 -10 19 0
23 21 7 39 -9 10 -16 23 -16 29 0 7 -4 12 -10 12 -5 0 -10 -9 -10 -19z"/>
<path d="M3914 449 c-11 -18 11 -32 25 -16 9 12 8 16 -3 20 -9 4 -18 1 -22 -4z"/>
<path d="M4388 455 c-3 -3 -19 -8 -34 -9 -16 -2 -33 -4 -37 -5 -5 0 -5 -6 -2
-11 5 -8 11 -8 19 -1 9 7 16 7 24 -1 7 -7 12 -8 12 -2 0 6 7 11 16 11 14 0 14
-2 3 -11 -8 -6 -14 -17 -14 -25 0 -8 -7 -16 -15 -18 -13 -4 -13 -3 0 6 8 5 11
13 7 17 -4 4 -10 4 -13 1 -10 -10 -13 -57 -4 -57 5 0 17 -3 27 -6 16 -5 16 -4
-1 10 -11 9 -15 17 -8 17 37 4 47 2 44 -10 -2 -9 5 -11 20 -6 16 4 19 3 10 -3
-11 -8 -11 -10 1 -15 9 -3 18 1 21 9 4 10 -4 18 -21 25 -36 13 -55 40 -41 57
11 13 -2 38 -14 27z"/>
<path d="M4556 453 c-11 -11 -7 -20 9 -20 8 0 15 4 15 8 0 11 -16 20 -24 12z"/>
<path d="M4643 453 c-7 -3 -13 -9 -13 -14 0 -6 4 -8 9 -4 19 11 24 -18 6 -32
-15 -10 -20 -10 -27 0 -6 9 -8 9 -8 -2 0 -11 -3 -11 -13 3 -7 9 -21 18 -31 20
-9 1 -22 9 -27 17 -5 9 -9 10 -9 2 0 -6 -9 -15 -21 -18 -11 -4 -18 -9 -15 -13
3 -3 -1 -16 -9 -29 -9 -13 -13 -23 -10 -23 3 0 -2 -14 -11 -31 -15 -30 -15
-31 1 -25 9 3 19 6 21 6 2 0 4 5 4 11 0 5 -5 7 -12 3 -7 -4 -8 -3 -4 5 4 6 12
9 17 6 13 -9 11 9 -3 25 -11 12 -10 12 4 1 14 -11 17 -10 17 6 1 44 5 49 33
48 15 0 28 -1 28 -1 0 -1 -15 -11 -32 -23 -18 -11 -26 -21 -18 -21 11 0 11 -3
2 -12 -18 -18 -15 -33 3 -18 9 7 14 19 11 27 -5 11 6 18 19 11 2 -2 11 6 20
17 10 13 14 15 13 5 -2 -9 4 -14 15 -14 9 1 17 -3 17 -8 0 -5 14 1 31 13 24
17 33 19 39 9 5 -7 6 -19 3 -27 -4 -11 -8 -10 -20 4 -14 17 -14 17 -9 0 3 -10
6 -22 6 -26 0 -4 9 -7 20 -8 12 -1 18 3 14 9 -4 6 3 19 16 28 22 16 21 40 -2
40 -7 0 -6 -6 2 -15 7 -9 8 -15 2 -15 -5 0 -12 6 -14 13 -8 20 2 36 18 30 8
-3 14 0 14 6 0 6 -6 11 -12 12 -59 5 -75 5 -85 2z m48 -13 c9 13 10 13 6 0 -2
-8 -10 -15 -17 -15 -7 0 -15 7 -17 15 -4 13 -3 13 6 0 10 -13 12 -13 22 0z"/>
<path d="M2064 438 c-5 -8 -2 -9 11 -4 18 7 18 6 0 -14 -14 -16 -16 -23 -7
-32 7 -7 12 -8 12 -4 0 5 8 2 17 -5 15 -13 16 -12 8 6 -4 11 -8 30 -8 43 1 23
-21 30 -33 10z"/>
<path d="M2670 440 c0 -5 5 -10 10 -10 6 0 10 5 10 10 0 6 -4 10 -10 10 -5 0
-10 -4 -10 -10z"/>
<path d="M3310 440 c0 -5 5 -10 10 -10 6 0 10 5 10 10 0 6 -4 10 -10 10 -5 0
-10 -4 -10 -10z"/>
<path d="M3710 440 c0 -5 5 -10 10 -10 6 0 10 5 10 10 0 6 -4 10 -10 10 -5 0
-10 -4 -10 -10z"/>
<path d="M3745 440 c-3 -5 -2 -10 4 -10 5 0 13 5 16 10 3 6 2 10 -4 10 -5 0
-13 -4 -16 -10z"/>
<path d="M4990 440 c0 -5 5 -10 10 -10 6 0 10 5 10 10 0 6 -4 10 -10 10 -5 0
-10 -4 -10 -10z"/>
<path d="M5016 433 c-9 -22 -4 -24 17 -8 14 10 15 14 3 18 -8 3 -17 -1 -20
-10z"/>
<path d="M1820 430 c-13 -9 -13 -10 0 -10 12 0 12 -2 1 -9 -8 -5 -9 -11 -3
-15 5 -3 15 1 22 9 9 11 9 15 1 15 -7 0 -9 5 -6 10 8 12 4 12 -15 0z"/>
<path d="M1853 428 c3 -10 0 -24 -8 -32 -18 -18 -19 -27 -2 -23 6 1 17 11 24
22 9 14 12 16 13 5 0 -13 1 -13 10 0 6 10 10 11 10 3 0 -7 7 -13 15 -13 8 0
15 5 15 11 0 5 -5 7 -10 4 -6 -3 -13 1 -16 9 -3 9 -10 13 -15 10 -6 -3 -17 0
-26 8 -15 11 -16 11 -10 -4z"/>
<path d="M4035 431 c-10 -9 -5 -18 10 -18 8 0 15 4 15 8 0 5 7 5 17 2 10 -4
14 -2 9 5 -6 10 -42 13 -51 3z"/>
<path d="M4236 431 c-4 -5 3 -12 14 -16 11 -3 20 -11 20 -16 0 -5 4 -8 9 -6
10 2 11 -3 10 -30 0 -13 -3 -11 -10 6 -5 13 -12 22 -14 19 -3 -3 -1 -17 4 -31
7 -17 16 -25 25 -21 8 3 12 12 10 19 -7 17 12 29 22 14 4 -8 3 -9 -4 -5 -7 4
-12 2 -12 -3 0 -6 6 -11 13 -11 7 0 8 -3 2 -8 -13 -9 -17 -32 -6 -32 13 0 21
25 16 51 -4 21 -31 48 -49 49 -5 0 -17 7 -27 16 -10 9 -19 11 -23 5z"/>
<path d="M1753 409 c-21 -21 -50 -18 -37 3 4 7 2 8 -4 4 -27 -17 -2 -37 61
-50 24 -5 59 -13 97 -21 21 -5 25 -2 26 18 2 25 -21 33 -30 11 -6 -15 -35 -12
-46 5 -6 10 -9 10 -15 1 -5 -8 -11 -5 -22 9 -8 12 -11 26 -8 31 10 16 1 12
-22 -11z m18 -26 c12 -16 12 -17 -2 -6 -9 7 -20 9 -24 5 -5 -4 -5 -1 -1 6 9
16 11 15 27 -5z"/>
<path d="M2184 411 c-32 -20 -40 -46 -17 -56 10 -3 13 0 8 14 -3 11 1 23 12
32 10 7 15 9 11 5 -4 -5 -3 -15 3 -23 9 -9 8 -13 0 -13 -6 0 -11 -5 -11 -11 0
-5 5 -7 10 -4 6 3 10 1 10 -5 0 -7 -6 -10 -14 -7 -10 4 -13 -3 -11 -26 2 -18
3 -34 4 -37 1 -7 52 -13 104 -13 20 0 37 -4 37 -9 0 -5 8 -8 18 -6 9 1 22 -1
29 -5 8 -5 11 1 11 20 -1 55 2 69 11 54 5 -8 11 -9 15 -3 10 16 -13 25 -29 12
-8 -7 -15 -9 -15 -5 0 4 -7 2 -15 -5 -11 -9 -15 -9 -15 -1 0 7 -5 9 -11 5 -7
-4 -8 -9 0 -17 7 -7 15 -6 26 3 9 7 15 8 15 2 0 -6 -6 -13 -12 -15 -10 -4 -10
-6 0 -6 6 -1 12 -6 12 -13 0 -9 -3 -9 -12 0 -19 19 -32 14 -17 -5 13 -16 12
-17 -2 -5 -9 7 -21 12 -25 11 -5 -1 -16 -1 -24 0 -13 1 -13 3 -1 10 8 5 21 7
30 3 10 -3 8 4 -8 21 -14 15 -27 27 -30 27 -14 -1 -53 -41 -47 -48 4 -4 12 1
17 10 6 11 16 15 26 11 12 -5 14 -3 8 7 -5 9 -4 11 4 6 16 -10 2 -29 -16 -22
-11 5 -13 1 -8 -17 3 -12 3 -17 -2 -12 -4 6 -18 10 -30 9 -12 -1 -27 3 -35 8
-10 7 -9 8 5 4 20 -6 22 4 5 24 -11 12 -10 12 4 1 15 -11 17 -9 15 21 -1 18
-6 36 -12 40 -7 5 -6 14 3 28 15 25 6 25 -34 1z"/>
<path d="M2415 412 c-3 -8 -3 -18 1 -23 10 -17 -7 -31 -22 -18 -8 6 -17 9 -21
5 -3 -3 -1 -6 6 -6 7 0 10 -3 7 -8 -2 -4 6 -12 20 -19 21 -10 23 -9 21 9 -1
12 4 23 11 25 6 3 12 0 12 -7 0 -6 -4 -8 -10 -5 -5 3 -10 2 -10 -3 0 -8 22
-22 34 -22 3 0 0 70 -3 80 -3 12 -41 5 -46 -8z m35 -10 c0 -5 -7 -9 -15 -9 -8
0 -12 4 -9 9 3 4 9 8 15 8 5 0 9 -4 9 -8z"/>
<path d="M2470 423 c0 -7 5 -15 11 -19 8 -4 7 -9 -2 -15 -10 -6 -10 -9 -2 -9
21 0 26 21 9 38 -9 10 -16 12 -16 5z"/>
<path d="M3095 416 c-14 -10 -15 -15 -5 -21 9 -6 11 -4 5 4 -6 10 -3 11 14 2
17 -10 21 -9 21 3 0 22 -15 27 -35 12z"/>
<path d="M3180 419 c0 -5 -6 -6 -14 -3 -8 3 -19 -3 -25 -14 -7 -13 -19 -18
-35 -17 -19 3 -29 -4 -40 -25 -13 -26 -12 -28 5 -27 14 1 18 7 13 22 -4 16 -3
17 5 5 7 -10 11 -11 11 -2 0 6 7 12 15 12 8 0 24 9 35 20 12 12 20 15 20 8 0
-10 2 -10 9 0 4 8 12 13 17 12 5 -1 10 3 12 8 1 5 -4 9 -13 9 -8 0 -15 -4 -15
-8z"/>
<path d="M3214 408 c-3 -10 -12 -19 -20 -19 -8 -1 -19 -2 -24 -3 -6 0 -17 -13
-24 -28 -13 -24 -13 -26 5 -25 14 1 18 7 13 22 -4 14 -3 16 4 7 7 -11 11 -10
16 4 3 9 9 14 13 10 3 -3 12 3 20 14 15 21 33 27 33 10 0 -5 -5 -9 -11 -7 -6
1 -14 -4 -16 -11 -3 -8 1 -10 11 -6 9 3 16 1 16 -6 0 -6 -4 -8 -10 -5 -5 3
-10 2 -10 -3 0 -8 22 -22 34 -22 3 0 0 70 -3 80 -3 14 -42 4 -47 -12z"/>
<path d="M3830 421 c0 -6 5 -13 12 -17 7 -5 8 -3 3 6 -5 8 -4 11 2 7 6 -4 9
-18 8 -32 -4 -30 5 -38 23 -19 7 8 8 14 2 14 -5 0 -10 4 -10 8 0 5 7 9 15 9 8
0 12 -3 10 -7 -2 -4 9 -7 24 -7 22 0 28 4 24 16 -4 14 -4 14 6 1 10 -13 12
-13 21 0 7 11 10 11 10 2 0 -7 -7 -15 -16 -19 -13 -5 -13 -8 -2 -15 9 -7 7 -8
-7 -4 -15 5 -21 1 -22 -13 -1 -17 1 -18 25 -6 23 13 31 27 34 63 1 8 7 7 20
-5 10 -9 18 -12 18 -7 0 19 -16 31 -35 27 -11 -3 -29 -5 -40 -6 -11 -1 -26 -6
-34 -11 -10 -7 -12 -6 -6 3 6 10 3 11 -11 3 -14 -7 -25 -6 -39 4 -22 16 -35
18 -35 5z"/>
<path d="M1965 410 c-3 -5 -3 -14 0 -20 12 -19 -5 -31 -27 -19 -12 7 -24 7
-29 2 -12 -12 -2 -39 14 -41 20 -1 56 -10 67 -17 6 -3 10 -2 10 4 0 5 -6 12
-12 15 -10 4 -9 9 3 17 15 11 15 14 -4 29 -14 12 -17 19 -8 24 7 5 10 2 9 -6
-4 -18 24 -16 29 2 4 12 3 12 -5 2 -7 -11 -10 -11 -15 2 -7 18 -23 21 -32 6z
m4 -47 c10 9 11 8 5 -6 -4 -12 -12 -16 -23 -11 -9 3 -21 7 -28 7 -7 0 -10 4
-7 9 3 4 13 4 23 -2 12 -6 22 -5 30 3z"/>
<path d="M2277 413 c-10 -9 -9 -23 1 -23 5 0 9 7 9 15 0 17 -1 18 -10 8z"/>
<path d="M2625 410 c-8 -13 3 -30 18 -29 8 0 8 2 -1 6 -10 4 -10 8 -1 19 8 9
8 14 1 14 -6 0 -14 -4 -17 -10z"/>
<path d="M3745 409 c-4 -5 1 -19 11 -30 16 -18 16 -19 1 -13 -10 3 -17 1 -17
-5 0 -6 4 -11 9 -11 5 0 17 -3 27 -7 16 -6 16 -3 -3 30 -15 25 -18 37 -10 41
9 3 9 5 0 5 -6 1 -15 -4 -18 -10z"/>
<path d="M4120 399 c-9 -15 -8 -24 1 -35 15 -18 36 -19 22 -1 -6 6 -10 20 -10
30 0 16 2 16 19 0 20 -18 25 -4 6 15 -17 17 -26 15 -38 -9z"/>
<path d="M4949 397 c-6 -14 -17 -23 -24 -21 -7 3 -16 1 -19 -4 -6 -10 -39 -9
-74 2 -23 8 -39 -9 -21 -20 8 -4 9 -3 5 4 -8 13 20 6 41 -10 7 -6 19 -6 30 0
10 5 23 7 30 5 6 -2 14 0 17 6 4 6 13 8 20 5 8 -3 17 0 22 7 4 7 3 10 -4 5 -6
-3 -14 -1 -18 6 -4 7 -4 10 1 6 4 -4 16 -3 26 3 15 8 18 6 13 -8 -3 -11 -2
-14 3 -8 4 6 14 10 21 11 6 1 19 2 28 3 9 0 14 7 12 14 -6 17 -34 15 -30 -3 3
-11 -2 -10 -17 4 -14 13 -21 15 -21 6 0 -10 -3 -10 -15 0 -12 10 -17 8 -26
-13z"/>
<path d="M2029 392 c-8 -9 -15 -31 -16 -49 -1 -28 2 -32 35 -38 20 -3 47 -9
60 -12 13 -3 22 -1 22 6 0 7 -8 11 -17 9 -10 -2 -17 3 -15 10 2 14 -14 16 -23
2 -11 -18 -26 -10 -20 10 5 15 3 18 -9 14 -9 -3 -16 -1 -16 6 0 6 5 8 10 5 6
-3 10 -1 10 4 0 6 -5 11 -11 11 -5 0 -7 5 -3 11 5 8 10 6 18 -7 12 -20 49 -29
43 -10 -2 6 -9 11 -16 11 -7 0 -18 8 -25 17 -12 16 -13 16 -27 0z"/>
<path d="M2110 401 c0 -6 5 -13 11 -17 8 -5 8 -9 -1 -14 -7 -4 -14 -20 -15
-34 -3 -23 -1 -25 11 -15 11 9 12 14 3 19 -8 6 -8 9 0 14 10 7 16 -6 12 -27
-2 -15 20 -47 32 -47 8 0 12 11 11 28 -2 41 -3 44 -14 37 -5 -3 -10 -1 -10 4
0 22 -2 26 -16 34 -8 5 -12 12 -9 18 4 5 1 9 -4 9 -6 0 -11 -4 -11 -9z m60
-81 c0 -5 -4 -10 -10 -10 -5 0 -10 5 -10 10 0 6 5 10 10 10 6 0 10 -4 10 -10z"/>
<path d="M2570 400 c0 -5 5 -10 10 -10 6 0 10 5 10 10 0 6 -4 10 -10 10 -5 0
-10 -4 -10 -10z"/>
<path d="M2950 400 c0 -5 5 -10 10 -10 6 0 10 5 10 10 0 6 -4 10 -10 10 -5 0
-10 -4 -10 -10z"/>
<path d="M3655 400 c3 -5 1 -10 -4 -10 -22 0 -26 -2 -34 -16 -5 -8 -12 -12
-18 -9 -5 4 -9 1 -9 -4 0 -14 13 -14 28 1 9 9 12 9 12 0 0 -7 5 -12 11 -12 5
0 7 5 4 10 -3 6 -1 11 4 11 33 4 62 20 55 31 -4 6 -10 5 -16 -3 -7 -11 -11
-11 -15 -1 -2 6 -9 12 -14 12 -6 0 -7 -4 -4 -10z"/>
<path d="M4036 395 c-3 -8 -3 -23 0 -32 5 -15 4 -16 -5 -3 -7 10 -11 11 -11 3
0 -7 -5 -13 -11 -13 -8 0 -7 5 1 15 10 12 10 19 2 27 -9 9 -12 9 -13 0 -3 -26
-4 -31 -11 -38 -15 -14 -8 -21 22 -20 23 1 34 9 45 30 13 24 13 27 0 23 -9 -4
-12 -1 -8 9 3 7 3 14 0 14 -3 0 -7 -7 -11 -15z"/>
<path d="M4073 396 c16 -12 16 -14 1 -20 -9 -3 -14 -13 -11 -20 3 -8 -1 -17
-9 -20 -9 -3 -13 -10 -9 -16 3 -5 13 -2 23 8 10 9 14 20 9 23 -5 3 -2 9 5 12
11 4 14 -3 13 -27 -2 -22 -7 -31 -19 -30 -9 1 -15 -3 -13 -10 3 -6 11 -9 18
-7 8 2 23 4 34 6 11 1 24 3 28 4 5 0 6 5 2 11 -3 5 -12 7 -20 3 -9 -3 -15 1
-15 11 0 9 5 16 11 16 5 0 7 -5 3 -12 -4 -6 -3 -8 4 -4 6 3 13 2 17 -4 3 -5
11 -10 17 -10 6 0 5 7 -3 18 -13 15 -12 16 3 4 9 -8 19 -9 22 -4 7 12 -19 23
-36 17 -17 -6 -29 3 -51 38 -10 15 -23 27 -30 27 -7 -1 -5 -6 6 -14z"/>
<path d="M4185 401 c-7 -12 12 -24 25 -16 6 3 10 1 10 -4 0 -8 7 -7 19 1 11 7
17 16 14 20 -2 5 -11 4 -18 -2 -9 -8 -15 -8 -20 0 -8 13 -22 13 -30 1z"/>
<path d="M4775 400 c3 -5 8 -10 11 -10 2 0 4 5 4 10 0 6 -5 10 -11 10 -5 0 -7
-4 -4 -10z"/>
<path d="M3286 369 c-11 -10 -14 -19 -8 -19 6 0 14 5 18 11 4 8 9 7 15 -2 4
-7 11 -10 15 -6 4 4 1 14 -7 21 -12 12 -17 11 -33 -5z"/>
<path d="M3821 363 c-10 -21 -9 -24 2 -20 8 3 20 0 26 -6 8 -8 11 -8 11 1 0 7
-7 15 -16 19 -11 4 -12 8 -4 13 7 5 8 10 3 13 -6 4 -15 -5 -22 -20z"/>
<path d="M4140 383 c0 -7 18 -22 39 -33 34 -17 40 -17 45 -4 6 16 -38 39 -56
28 -6 -4 -14 0 -19 7 -6 10 -9 10 -9 2z"/>
<path d="M2725 370 c-4 -6 -10 -8 -15 -5 -5 3 -11 -4 -15 -15 -4 -11 -9 -19
-13 -17 -4 2 -17 -7 -29 -20 -25 -26 -18 -30 13 -8 12 8 25 11 29 7 3 -4 5 -1
3 7 -1 8 8 20 22 28 14 7 21 13 15 13 -5 0 -3 5 5 10 9 6 10 10 3 10 -6 0 -15
-5 -18 -10z"/>
<path d="M3365 371 c-8 -14 10 -22 32 -15 13 4 14 3 5 -4 -11 -7 -11 -10 1
-15 9 -3 18 1 21 9 4 9 -3 18 -20 24 -31 12 -31 12 -39 1z"/>
<path d="M3436 371 c-4 -6 -5 -11 -1 -11 3 0 -1 -13 -10 -30 -19 -37 -19 -46
0 -30 9 7 13 15 10 18 -3 3 3 14 12 24 12 13 13 22 6 29 -8 8 -13 8 -17 0z"/>
<path d="M3515 370 c-4 -6 -3 -16 3 -22 6 -6 12 -6 17 2 4 6 3 16 -3 22 -6 6
-12 6 -17 -2z"/>
<path d="M3689 375 c-1 -3 -2 -9 -3 -14 0 -5 -4 -13 -8 -17 -14 -13 -9 -27 5
-15 8 6 17 8 20 4 4 -3 17 -7 29 -7 13 -1 29 -5 37 -10 9 -6 12 -5 9 5 -3 8
-13 13 -22 13 -9 -1 -16 2 -16 6 0 20 -47 51 -51 35z m36 -34 c-6 -5 -25 10
-25 20 0 5 6 4 14 -3 8 -7 12 -15 11 -17z"/>
<path d="M3885 355 c-14 -13 -25 -29 -25 -35 0 -5 -7 -10 -16 -10 -8 0 -13 -4
-10 -9 3 -5 17 -8 32 -8 18 0 22 3 15 10 -6 6 -11 16 -11 22 0 5 5 2 11 -7 15
-26 32 -23 18 3 -8 16 -8 24 2 33 9 8 10 8 5 -1 -8 -15 3 -45 15 -37 5 3 9 1
9 -5 0 -5 -5 -11 -10 -13 -6 -2 -1 -9 11 -17 19 -11 21 -11 16 2 -3 8 1 23 9
34 9 10 12 12 8 4 -5 -10 -3 -12 7 -7 8 4 5 0 -5 -8 -14 -11 -15 -16 -6 -16
11 0 11 -3 2 -12 -18 -18 -15 -33 3 -18 9 7 14 19 11 26 -3 7 4 16 15 19 10 4
17 11 13 16 -3 6 -9 8 -12 5 -3 -3 -11 -1 -19 5 -9 8 -17 8 -26 1 -8 -7 -18
-7 -27 -1 -13 8 -13 10 0 19 13 9 13 10 0 10 -13 0 -13 1 0 10 11 7 11 10 2
10 -7 0 -24 -11 -37 -25z"/>
<path d="M4236 371 c-4 -6 -5 -11 -1 -11 3 0 1 -9 -5 -20 -6 -11 -15 -18 -20
-15 -5 3 -28 -8 -52 -24 -30 -21 -45 -26 -50 -18 -5 8 -8 8 -8 1 0 -21 -31
-10 -52 19 -16 22 -23 26 -29 15 -15 -22 -10 -31 9 -17 15 13 16 12 3 -4 -8
-9 -11 -20 -7 -24 3 -3 -8 -14 -24 -24 -17 -11 -30 -23 -30 -27 0 -5 -7 -9
-15 -9 -8 0 -12 4 -9 9 18 29 -35 79 -62 57 -9 -7 -14 -8 -14 -1 0 6 -12 0
-27 -14 -14 -13 -24 -27 -20 -30 3 -3 14 3 24 13 21 21 67 23 85 4 11 -10 9
-15 -7 -27 -13 -10 -21 -11 -23 -4 -3 7 -8 8 -16 1 -9 -8 -13 -7 -13 4 0 8 4
12 9 9 4 -3 8 0 8 6 0 27 -33 3 -35 -25 -2 -16 -1 -25 1 -20 2 6 30 10 64 9
33 -1 60 1 60 5 0 5 17 20 37 34 21 15 32 27 25 27 -7 0 -10 5 -6 11 5 8 9 8
14 -1 9 -14 1 -60 -11 -60 -5 0 -6 8 -2 18 6 15 3 15 -18 -3 -13 -11 -26 -21
-29 -23 -2 -1 25 0 60 3 36 4 80 7 98 7 33 0 40 18 11 26 -11 3 -11 2 1 -7 9
-7 10 -11 3 -11 -6 0 -15 5 -18 10 -3 6 -15 10 -26 10 -11 0 -17 -4 -14 -10 3
-5 1 -10 -4 -10 -6 0 -11 5 -11 11 0 8 -5 7 -15 -1 -13 -11 -14 -10 -9 4 4 10
13 15 20 12 8 -3 14 -1 14 5 0 6 5 7 11 4 5 -4 19 1 29 10 11 10 31 18 45 18
22 0 24 2 13 16 -10 13 -10 14 2 4 14 -13 39 -19 27 -6 -4 3 3 17 15 30 15 17
19 26 11 34 -8 8 -13 8 -17 0z"/>
<path d="M4550 367 c0 -8 -7 -20 -15 -27 -8 -7 -12 -16 -9 -21 3 -5 0 -9 -5
-9 -6 0 -11 4 -11 9 0 5 -14 -3 -30 -17 -29 -26 -90 -39 -90 -20 0 5 10 7 23
3 20 -5 20 -5 -3 9 -21 12 -26 12 -33 1 -4 -7 -5 -20 -2 -27 5 -13 20 -14 85
-4 14 3 33 5 43 5 10 1 16 5 13 10 -3 5 -16 7 -29 4 -12 -3 -19 -3 -16 0 3 4
23 9 45 11 21 2 33 2 27 -1 -7 -2 -13 -9 -13 -14 0 -5 11 -4 26 1 14 6 36 10
50 10 13 0 24 5 24 11 0 5 -5 7 -10 4 -6 -4 -9 -1 -8 6 2 6 -3 14 -10 16 -7 3
-11 -1 -10 -7 4 -15 -24 -21 -42 -10 -11 7 -10 13 3 34 10 15 13 27 7 31 -6 3
-10 0 -10 -8z"/>
<path d="M4572 373 c1 -5 -3 -18 -10 -30 -7 -13 -11 -23 -10 -24 23 -6 37 -6
33 1 -3 5 0 12 6 16 7 4 21 -3 33 -17 19 -22 26 -24 64 -17 23 4 47 10 53 13
5 4 29 9 52 12 23 2 47 9 52 14 12 12 -33 8 -52 -4 -7 -5 -18 -5 -23 -2 -6 4
-18 1 -26 -6 -12 -10 -13 -9 -8 6 6 14 4 16 -7 9 -8 -5 -30 -9 -49 -9 -23 0
-34 -5 -32 -13 1 -8 -2 -10 -8 -7 -8 5 -6 13 5 25 17 19 12 46 -6 34 -5 -3 -7
-9 -5 -13 3 -4 0 -13 -6 -21 -8 -12 -9 -12 -4 3 4 13 -2 20 -20 27 -30 12 -35
12 -32 3z m28 -23 c-8 -5 -19 -10 -25 -10 -5 0 -3 5 5 10 8 5 20 10 25 10 6 0
3 -5 -5 -10z m114 -31 c-5 -9 -54 -8 -54 0 0 4 13 7 29 6 16 0 27 -3 25 -6z"/>
<path d="M2475 360 c-3 -5 -2 -10 4 -10 5 0 13 5 16 10 3 6 2 10 -4 10 -5 0
-13 -4 -16 -10z"/>
<path d="M2510 360 c0 -5 5 -10 10 -10 6 0 10 5 10 10 0 6 -4 10 -10 10 -5 0
-10 -4 -10 -10z"/>
<path d="M2670 360 c0 -5 5 -10 10 -10 6 0 10 5 10 10 0 6 -4 10 -10 10 -5 0
-10 -4 -10 -10z"/>
<path d="M2900 355 c7 -9 19 -14 27 -11 7 3 13 2 13 -2 0 -4 11 -8 25 -8 23
-2 24 0 13 15 -12 14 -11 14 4 3 9 -8 22 -11 28 -7 9 6 14 -7 11 -27 0 -5 6
-8 14 -8 18 0 19 12 3 29 -11 10 -10 12 1 9 7 -2 16 3 18 10 4 11 1 12 -15 3
-15 -8 -22 -8 -25 2 -4 9 -6 8 -6 -2 -1 -11 -4 -11 -15 -2 -11 9 -20 10 -35 1
-16 -8 -21 -8 -21 2 0 10 -2 10 -9 -1 -6 -9 -11 -10 -15 -2 -4 6 -12 11 -18
11 -6 0 -6 -6 2 -15z"/>
<path d="M3106 345 c-15 -16 -26 -25 -26 -21 0 4 -6 2 -12 -4 -7 -6 -22 -17
-32 -24 -19 -13 -15 -36 6 -36 6 0 5 7 -3 17 -8 9 -9 14 -3 10 7 -4 17 0 24 8
7 8 19 15 26 15 8 0 14 6 14 13 0 8 3 7 10 -3 5 -8 12 -11 16 -7 4 3 1 14 -7
24 -8 9 -9 14 -2 10 12 -8 29 10 20 20 -3 3 -17 -7 -31 -22z"/>
<path d="M3180 342 c-6 -14 -13 -22 -17 -19 -3 3 -12 -1 -20 -9 -9 -8 -22 -13
-29 -10 -8 3 -14 1 -14 -4 0 -5 -6 -7 -13 -4 -8 3 -20 -2 -27 -11 -8 -9 -8
-15 -2 -15 6 0 14 5 18 11 4 8 9 7 15 -2 6 -10 9 -10 9 -2 0 7 6 10 13 7 8 -3
20 2 27 11 7 8 19 15 26 15 8 0 14 5 14 12 0 6 2 9 5 6 10 -10 -7 -37 -19 -32
-7 3 -19 -2 -26 -11 -15 -18 0 -21 18 -3 9 9 12 9 12 -2 1 -11 3 -10 11 3 6 9
15 14 21 11 8 -5 9 -1 5 10 -4 11 -3 15 4 10 8 -4 9 1 5 17 l-7 24 14 -23 c7
-12 16 -19 20 -16 10 11 8 26 -2 19 -5 -3 -12 3 -15 13 -9 26 -32 23 -46 -6z"/>
<path d="M3658 358 c-5 -14 -26 -17 -133 -21 -38 -1 -70 -5 -70 -8 0 -4 -9
-16 -19 -28 -11 -12 -16 -24 -13 -27 3 -4 15 9 26 27 12 19 21 28 21 22 0 -7
5 -13 11 -13 5 0 7 5 3 12 -4 7 -3 8 5 4 15 -10 3 -29 -14 -22 -9 3 -13 -2
-12 -15 1 -10 4 -19 8 -19 4 0 16 -3 26 -6 16 -5 16 -4 -1 10 -20 16 -13 21
24 16 12 -1 13 1 3 11 -7 7 -13 18 -13 24 0 5 5 2 11 -7 11 -21 30 -24 25 -5
-1 6 -1 9 1 5 3 -5 9 -8 14 -8 6 0 7 5 3 12 -5 7 -3 8 6 3 10 -6 9 -11 -4 -21
-13 -9 -14 -13 -4 -18 7 -3 4 -4 -8 -1 -14 4 -21 0 -21 -10 0 -17 3 -17 32 -6
11 5 21 13 21 20 1 6 2 19 3 29 1 14 3 15 11 2 6 -9 5 -17 -3 -23 -8 -6 -6 -7
6 -3 10 3 21 6 24 6 3 0 0 6 -6 14 -9 11 -9 16 0 22 7 4 9 3 5 -4 -3 -6 -3
-12 1 -14 12 -6 55 39 44 46 -5 3 -11 0 -13 -6z"/>
<path d="M3790 360 c0 -5 5 -10 10 -10 6 0 10 5 10 10 0 6 -4 10 -10 10 -5 0
-10 -4 -10 -10z"/>
<path d="M4388 356 c3 -6 5 -18 4 -26 -1 -8 11 -22 27 -31 28 -16 29 -16 29 6
0 15 -9 27 -25 34 -13 6 -22 15 -19 19 3 5 -1 9 -9 9 -8 0 -11 -5 -7 -11z m48
-38 c3 -4 -1 -5 -10 -4 -8 1 -18 5 -22 8 -3 4 1 5 10 4 8 -1 18 -5 22 -8z"/>
<path d="M4710 361 c0 -4 14 -8 30 -9 17 0 30 3 30 7 0 4 -13 8 -30 9 -16 0
-30 -3 -30 -7z"/>
<path d="M2066 334 c-5 -14 -4 -15 9 -4 17 14 19 20 6 20 -5 0 -12 -7 -15 -16z"/>
<path d="M2478 339 c-10 -5 -18 -15 -18 -22 0 -8 4 -6 11 3 9 12 10 12 5 -3
-4 -12 -2 -17 6 -14 7 2 12 11 12 20 -1 9 2 14 8 11 5 -3 6 -14 3 -25 -5 -14
-2 -17 9 -13 8 3 14 11 12 17 -1 7 -1 9 1 5 6 -11 23 -10 23 0 0 5 -11 14 -25
20 -30 14 -26 14 -47 1z"/>
<path d="M3264 325 c-14 -13 -30 -22 -34 -20 -4 3 -11 -2 -14 -11 -3 -8 -11
-12 -17 -8 -8 4 -9 3 -5 -5 6 -9 11 -9 22 0 10 8 14 8 14 0 0 -6 5 -11 11 -11
5 0 7 5 4 10 -3 6 -1 11 4 11 6 1 16 2 21 3 15 2 30 28 22 41 -3 5 1 4 10 -2
8 -7 19 -9 24 -5 4 4 2 -1 -5 -10 -7 -10 -10 -18 -6 -18 5 0 17 8 28 18 15 12
21 14 24 5 3 -7 9 -13 14 -13 6 0 7 5 3 12 -4 7 -3 8 5 4 6 -4 8 -12 5 -18 -4
-7 -2 -8 4 -4 18 11 14 22 -12 34 -16 7 -27 7 -34 0 -7 -7 -16 -6 -30 1 -27
15 -27 15 -58 -14z"/>
<path d="M2417 315 c-15 -14 -23 -25 -16 -25 8 0 8 -4 -1 -15 -9 -11 -9 -15
-1 -15 7 0 10 -4 7 -8 -3 -5 5 -8 17 -7 15 1 22 9 23 24 1 12 -3 24 -7 27 -5
3 -9 -2 -9 -10 0 -8 -4 -17 -8 -20 -4 -2 -8 4 -8 15 0 17 9 23 29 20 4 0 7 8
7 19 0 25 1 25 -33 -5z"/>
<path d="M2613 316 c-15 -17 -18 -26 -10 -30 7 -3 1 -3 -13 1 -21 5 -23 4 -12
-9 7 -9 10 -22 6 -31 -3 -8 -1 -18 5 -22 9 -5 13 7 10 31 0 4 5 10 13 15 7 5
14 13 14 19 1 5 2 15 3 20 0 6 4 9 9 8 4 -2 8 1 10 7 7 20 -15 14 -35 -9z"/>
<path d="M3793 326 c7 -18 -17 -28 -32 -13 -7 7 -11 7 -11 1 0 -6 3 -14 8 -18
4 -4 7 -13 7 -18 0 -6 6 -13 13 -16 7 -2 10 2 6 11 -8 22 15 32 33 14 14 -13
13 -16 -6 -22 -12 -3 -19 -11 -15 -16 10 -16 -27 -50 -48 -43 -10 3 -18 0 -18
-6 0 -16 52 -8 68 10 10 13 11 12 5 -5 -6 -18 -5 -18 10 -6 14 11 17 11 17 0
0 -11 2 -11 10 1 15 23 12 32 -10 25 -27 -9 -27 19 1 38 20 14 20 16 2 26 -17
11 -17 11 0 25 11 8 14 17 8 20 -5 4 -14 -2 -20 -11 -10 -17 -10 -17 -11 0 0
9 -5 17 -11 17 -6 0 -9 -6 -6 -14z"/>
<path d="M4240 325 c-15 -18 1 -20 19 -2 9 7 11 8 7 1 -10 -20 -76 -55 -76
-41 0 7 -3 8 -8 2 -4 -5 -13 -10 -21 -10 -8 0 -16 -6 -19 -13 -2 -7 2 -10 11
-6 9 3 22 -4 31 -18 9 -12 16 -18 16 -13 0 9 43 15 113 15 15 0 27 4 27 8 0 5
-17 8 -37 6 -29 -2 -34 0 -20 7 25 14 22 32 -4 19 -11 -7 -18 -17 -16 -24 3
-8 -5 -12 -27 -10 -52 3 -56 4 -56 15 0 5 5 7 11 4 5 -4 19 1 30 11 17 16 22
16 29 4 6 -8 10 -12 11 -7 1 4 3 12 4 17 1 6 3 15 4 21 0 5 6 7 12 3 8 -4 7
-9 -2 -16 -10 -6 -7 -7 9 -3 18 5 22 2 22 -14 0 -12 5 -21 10 -21 6 0 10 9 10
20 0 11 4 20 9 20 5 0 9 -6 8 -12 -1 -39 3 -52 15 -40 8 8 8 15 -2 27 -7 8 -8
15 -2 15 15 0 24 32 12 44 -8 8 -16 4 -29 -13 -18 -23 -49 -22 -35 1 5 7 1 9
-9 5 -9 -3 -19 -2 -22 3 -9 14 -21 12 -35 -5z m121 -18 c-10 -9 -11 -8 -5 6 3
10 9 15 12 12 3 -3 0 -11 -7 -18z"/>
<path d="M2552 310 c-12 -10 -28 -20 -35 -23 -6 -2 -8 -8 -4 -13 4 -5 13 -2
18 6 9 13 10 13 6 0 -2 -8 -12 -14 -21 -13 -11 0 -15 -4 -12 -13 4 -11 2 -12
-14 -1 -23 14 -27 29 -5 21 8 -4 15 -1 15 5 0 6 -4 11 -9 11 -5 0 -16 2 -23 5
-11 4 -14 -2 -13 -24 1 -30 15 -58 15 -31 0 8 4 9 13 3 6 -6 19 -10 27 -10 8
0 25 -3 38 -7 22 -7 23 -7 26 37 1 6 -5 11 -11 10 -23 -5 -14 14 13 25 14 7
22 17 19 22 -9 14 -17 12 -43 -10z m9 -67 c-6 -10 -11 -13 -11 -6 0 7 -7 10
-17 7 -15 -5 -15 -4 -3 4 8 6 18 8 22 6 4 -3 8 0 8 7 0 7 3 10 6 6 3 -3 1 -14
-5 -24z"/>
<path d="M2899 326 c-1 0 -2 -16 -4 -34 -2 -25 1 -32 12 -28 8 4 17 6 19 6 2
0 4 5 4 11 0 5 -4 7 -10 4 -5 -3 -10 -1 -10 5 0 7 7 9 16 6 11 -4 15 -2 11 7
-3 8 3 13 17 14 11 0 15 -1 9 -4 -7 -3 -13 -9 -13 -14 0 -6 5 -7 10 -4 9 6 14
-8 11 -28 -1 -5 7 -6 18 -2 14 4 21 0 26 -14 6 -21 24 -24 38 -6 5 6 7 4 4 -5
-2 -8 -10 -14 -16 -12 -15 3 -14 -15 2 -21 6 -3 2 -4 -9 -4 -14 1 -20 6 -17
14 4 9 0 11 -11 7 -9 -3 -13 -10 -10 -15 3 -5 -1 -6 -9 -3 -8 3 -17 1 -20 -3
-5 -8 68 -14 235 -17 42 -1 75 2 72 5 -2 4 0 9 6 11 6 2 1 9 -11 17 -19 11
-21 11 -16 -3 5 -14 3 -15 -13 -6 -26 14 -30 13 -23 -7 4 -12 -1 -9 -16 7 -18
21 -21 22 -19 6 2 -12 -4 -20 -15 -22 -15 -2 -16 0 -6 12 6 8 9 17 6 20 -3 3
-11 -3 -18 -14 -12 -19 -14 -19 -26 -4 -7 9 -13 12 -13 6 0 -6 -10 -11 -22
-10 -15 1 -22 7 -19 16 2 8 4 21 4 28 0 16 10 6 13 -13 1 -8 -3 -15 -9 -15 -5
0 -8 -3 -4 -6 9 -9 32 9 32 26 0 8 7 15 15 15 10 0 14 -8 12 -24 -2 -20 0 -22
13 -11 9 7 13 20 10 29 -3 11 0 10 10 -3 9 -12 15 -15 15 -7 0 7 6 11 14 8 7
-3 20 0 27 6 11 10 11 9 0 -5 -19 -25 -1 -22 33 6 15 13 24 26 18 30 -5 3 -12
0 -15 -7 -4 -10 -29 -13 -93 -11 -49 1 -97 -3 -107 -8 -26 -13 -47 7 -42 41 3
27 2 27 -56 28 -32 1 -60 0 -60 -1z m96 -16 c-3 -5 -1 -10 5 -10 6 0 8 -5 4
-11 -4 -8 -9 -7 -15 2 -7 12 -3 29 7 29 3 0 2 -4 -1 -10z"/>
<path d="M3636 296 c-20 -42 -20 -43 -1 -43 11 0 14 7 9 21 -4 15 -3 17 4 8 7
-11 10 -11 15 2 4 9 1 16 -5 16 -6 0 -9 3 -6 6 4 3 16 1 27 -6 13 -7 21 -7 21
-1 0 6 6 8 14 5 8 -3 17 1 22 8 4 7 4 10 -1 6 -4 -4 -16 -3 -26 2 -12 7 -20 7
-24 0 -5 -8 -11 -8 -20 0 -9 8 -16 2 -29 -24z"/>
<path d="M4070 320 c0 -5 5 -10 11 -10 5 0 7 5 4 10 -3 6 -8 10 -11 10 -2 0
-4 -4 -4 -10z"/>
<path d="M2718 315 c-3 -4 -14 -8 -23 -9 -9 -1 -22 -14 -30 -28 -12 -24 -11
-26 6 -25 14 1 18 7 14 22 -3 11 -2 14 1 7 5 -10 9 -9 18 4 15 20 36 11 31
-14 -2 -9 -4 -21 -4 -26 -1 -6 -8 -1 -16 10 -8 10 -15 14 -15 7 0 -6 7 -18 15
-27 8 -8 15 -20 15 -26 0 -6 5 -8 10 -5 6 4 8 15 5 26 -4 13 -1 21 10 25 12 5
13 9 4 14 -7 5 -2 7 13 7 13 -1 25 -7 25 -14 0 -6 -6 -9 -14 -6 -21 8 -15 -5
8 -17 17 -10 20 -9 18 7 -2 10 0 24 5 32 6 9 5 12 -2 7 -6 -3 -14 -2 -17 4 -4
6 -16 8 -27 4 -12 -4 -24 0 -32 11 -6 9 -14 13 -18 10z"/>
<path d="M2865 281 c0 -23 5 -35 13 -33 10 2 10 -2 0 -17 -6 -11 -20 -18 -30
-16 -10 2 -18 -1 -18 -7 0 -6 16 -9 40 -6 22 2 40 0 40 -4 0 -4 9 -6 20 -5 11
1 20 5 20 10 0 5 -7 6 -16 3 -8 -3 -13 -2 -10 3 3 5 -1 11 -9 15 -8 3 -15 1
-15 -4 0 -6 -5 -10 -11 -10 -8 0 -7 5 2 16 11 14 11 18 -4 29 -14 10 -15 14
-5 18 10 4 10 6 -1 6 -10 1 -11 4 -2 15 9 10 8 15 -1 19 -10 3 -13 -6 -13 -32z"/>
<path d="M3340 304 c-7 -8 -21 -12 -31 -9 -19 6 -35 -10 -19 -20 5 -3 10 -1
10 5 0 6 5 8 11 4 8 -4 7 -9 -2 -15 -7 -4 -17 -5 -21 -3 -5 3 -11 -2 -14 -10
-3 -9 -10 -14 -14 -11 -4 3 -14 -3 -21 -13 -11 -14 -11 -15 0 -5 19 17 62 -12
54 -35 -6 -15 -5 -16 12 -2 10 8 16 10 13 4 -5 -7 36 -9 130 -8 241 3 270 5
276 21 4 9 13 12 25 8 11 -3 24 1 32 11 11 14 10 18 -6 27 -11 6 -26 12 -33
13 -22 4 -24 11 -7 18 11 4 14 2 9 -6 -4 -7 -3 -8 5 -4 19 12 1 27 -22 20 -12
-4 -29 -7 -39 -6 -9 0 -21 -12 -28 -29 -7 -16 -17 -29 -22 -29 -5 0 -6 5 -2
12 4 6 3 8 -3 5 -6 -4 -19 0 -29 8 -11 9 -13 14 -5 13 7 -2 16 3 18 10 7 20
-26 2 -38 -20 -6 -11 -7 -18 -1 -15 15 10 43 -16 33 -32 -11 -18 -32 -5 -24
15 5 14 3 14 -15 3 -18 -11 -18 -14 -6 -24 13 -9 12 -11 -5 -11 -11 0 -18 3
-15 7 2 4 -7 6 -21 5 -14 0 -25 -4 -25 -7 0 -3 -7 -6 -15 -6 -8 0 -15 4 -15 9
0 8 23 12 49 8 13 -1 13 1 2 14 -10 12 -17 13 -27 5 -7 -6 -18 -8 -24 -4 -9 6
-14 -8 -11 -28 1 -4 -7 -3 -18 2 -14 8 -21 7 -24 -2 -4 -9 -6 -9 -6 1 -1 7 -5
10 -11 7 -5 -3 -10 -1 -10 5 0 7 6 10 14 7 11 -4 14 3 11 29 -1 19 -4 36 -6
37 -45 32 -57 36 -69 21z m33 -10 c9 -9 -4 -35 -14 -28 -5 3 -9 1 -9 -5 0 -5
5 -11 11 -13 15 -5 18 -55 3 -55 -9 0 -10 5 -4 18 7 12 5 21 -7 30 -15 12 -16
12 -10 -4 4 -11 5 -23 1 -28 -7 -12 -64 18 -63 34 0 9 2 9 6 0 3 -10 8 -9 20
2 8 8 20 12 26 8 7 -4 8 0 3 12 -8 23 20 46 37 29z m30 -31 c-7 -3 -9 -12 -6
-21 4 -14 3 -14 -5 -3 -12 17 -4 43 11 34 8 -5 8 -8 0 -10z m300 0 c-3 -9 0
-11 10 -7 8 3 18 0 22 -5 3 -6 11 -9 16 -6 5 4 14 3 20 -1 8 -4 7 -9 -2 -15
-8 -5 -20 -2 -31 8 -10 9 -21 13 -26 8 -4 -4 -1 -10 6 -12 10 -4 10 -8 1 -19
-10 -12 -15 -12 -32 3 -16 14 -19 15 -15 3 4 -12 -1 -16 -22 -15 -16 0 -26 4
-23 8 3 5 11 6 18 3 8 -3 17 4 20 15 4 10 11 19 16 19 5 0 9 5 9 11 0 5 -5 7
-12 3 -6 -4 -8 -3 -5 3 9 15 36 12 30 -4z"/>
<path d="M3345 280 c-3 -6 1 -7 9 -4 18 7 21 14 7 14 -6 0 -13 -4 -16 -10z"/>
<path d="M3317 244 c-11 -11 -8 -26 3 -19 6 3 10 1 10 -6 0 -7 3 -10 6 -6 3 3
2 13 -3 22 -5 8 -12 12 -16 9z"/>
<path d="M3686 242 c-3 -5 1 -15 9 -22 16 -14 20 -3 6 19 -5 8 -11 9 -15 3z"/>
<path d="M3990 287 c0 -8 -7 -20 -15 -27 -8 -7 -15 -18 -15 -24 1 -6 9 -1 19
11 10 12 21 19 25 16 3 -4 6 1 6 10 0 9 -4 19 -10 22 -5 3 -10 0 -10 -8z"/>
<path d="M2631 271 c-26 -26 -27 -51 -3 -52 9 -1 27 -3 40 -4 18 -2 20 0 11
12 -9 11 -9 12 5 7 9 -3 16 -10 16 -15 0 -5 5 -9 10 -9 7 0 6 6 -1 18 -6 10
-24 17 -45 18 -30 1 -32 -1 -16 -13 15 -12 14 -13 -7 -2 l-24 11 24 19 c13 9
21 21 17 24 -3 4 -16 -3 -27 -14z"/>
<path d="M2710 281 c0 -6 4 -12 8 -15 5 -3 9 1 9 9 0 8 -4 15 -9 15 -4 0 -8
-4 -8 -9z"/>
<path d="M2936 273 c-4 -9 -4 -18 -1 -21 3 -3 5 1 5 8 0 7 2 11 5 8 3 -3 3
-13 -1 -22 -6 -15 -7 -15 -20 1 -11 15 -13 16 -14 2 0 -25 45 -41 75 -27 29
13 28 33 -1 33 -10 0 -18 5 -17 12 4 18 -25 24 -31 6z m34 -33 c0 -5 -5 -10
-11 -10 -5 0 -7 5 -4 10 3 6 8 10 11 10 2 0 4 -4 4 -10z"/>
<path d="M3440 275 c-7 -8 -9 -15 -4 -15 5 0 3 -4 -4 -8 -13 -9 -6 -42 9 -42
10 0 10 1 14 48 2 37 2 37 -15 17z"/>
<path d="M3507 279 c7 -7 15 -10 18 -7 3 3 -2 9 -12 12 -14 6 -15 5 -6 -5z"/>
<path d="M3790 280 c0 -5 5 -10 10 -10 6 0 10 5 10 10 0 6 -4 10 -10 10 -5 0
-10 -4 -10 -10z"/>
<path d="M4220 265 c-9 -11 -8 -14 9 -12 22 1 28 12 12 21 -5 3 -14 -1 -21 -9z"/>
<path d="M2820 239 c-11 -19 -13 -20 -37 -4 -29 19 -39 15 -25 -12 6 -10 22
-19 37 -21 15 -1 24 2 20 8 -3 6 -1 11 4 11 6 1 16 3 21 4 6 1 15 3 21 4 8 1
8 6 -1 16 -17 20 -27 19 -40 -6z"/>
<path d="M3465 251 c-7 -12 12 -24 25 -16 11 7 4 25 -10 25 -5 0 -11 -4 -15
-9z"/>
<path d="M3510 251 c0 -15 27 -32 42 -26 8 3 15 13 15 21 0 8 -5 13 -11 11 -6
-3 -10 -11 -8 -18 1 -9 -3 -8 -11 4 -15 18 -27 22 -27 8z"/>
<path d="M3898 253 c6 -2 10 -9 6 -14 -3 -5 2 -9 10 -9 9 0 16 4 16 9 0 9 -25
22 -38 20 -4 0 -1 -3 6 -6z"/>
<path d="M3110 240 c0 -5 5 -10 10 -10 6 0 10 5 10 10 0 6 -4 10 -10 10 -5 0
-10 -4 -10 -10z"/>
</g>
</svg>
